<mxfile host="app.diagrams.net" agent="Mozilla/5.0 (X11; Linux x86_64) AppleWebKit/537.36 (KHTML, like Gecko) Chrome/127.0.0.0 Safari/537.36 OPR/113.0.0.0" version="26.0.7">
  <diagram name="Page-1" id="XURcQwV1ndUySOMYXPaa">
    <mxGraphModel dx="3226" dy="2441" grid="1" gridSize="10" guides="1" tooltips="1" connect="1" arrows="1" fold="1" page="1" pageScale="1" pageWidth="850" pageHeight="1100" math="0" shadow="0">
      <root>
        <mxCell id="0" />
        <mxCell id="1" parent="0" />
        <mxCell id="tI6_fL3ysTr3sA-bvsCZ-63" value="" style="rounded=0;whiteSpace=wrap;html=1;fillColor=#d5e8d4;strokeColor=#82b366;" vertex="1" parent="1">
          <mxGeometry x="-410" y="-270" width="1850" height="1340" as="geometry" />
        </mxCell>
        <mxCell id="tI6_fL3ysTr3sA-bvsCZ-61" value="" style="rounded=1;whiteSpace=wrap;html=1;fillColor=#dae8fc;strokeColor=default;shadow=0;glass=0;" vertex="1" parent="1">
          <mxGeometry x="8" y="-240" width="970" height="1280" as="geometry" />
        </mxCell>
        <mxCell id="tI6_fL3ysTr3sA-bvsCZ-43" value="" style="endArrow=classic;html=1;rounded=0;entryX=0.5;entryY=1;entryDx=0;entryDy=0;dashed=1;exitX=0.5;exitY=0;exitDx=0;exitDy=0;" edge="1" parent="1" source="tI6_fL3ysTr3sA-bvsCZ-32" target="tI6_fL3ysTr3sA-bvsCZ-35">
          <mxGeometry width="50" height="50" relative="1" as="geometry">
            <mxPoint x="480" y="30" as="sourcePoint" />
            <mxPoint x="495" y="-66.84" as="targetPoint" />
          </mxGeometry>
        </mxCell>
        <mxCell id="tI6_fL3ysTr3sA-bvsCZ-44" value="monitoring" style="edgeLabel;html=1;align=left;verticalAlign=middle;resizable=0;points=[];labelBackgroundColor=none;fontStyle=1;labelPosition=right;verticalLabelPosition=middle;" vertex="1" connectable="0" parent="tI6_fL3ysTr3sA-bvsCZ-43">
          <mxGeometry x="0.2569" y="-1" relative="1" as="geometry">
            <mxPoint x="-1" y="25" as="offset" />
          </mxGeometry>
        </mxCell>
        <mxCell id="tI6_fL3ysTr3sA-bvsCZ-32" value="Prometheus&lt;div&gt;10.5.0.4&lt;br&gt;&lt;/div&gt;" style="rounded=1;whiteSpace=wrap;html=1;strokeColor=default;align=center;verticalAlign=top;fontFamily=Helvetica;fontSize=12;fontColor=default;fillColor=default;fontStyle=1;labelPosition=center;verticalLabelPosition=bottom;" vertex="1" parent="1">
          <mxGeometry x="370" y="40.000000000000014" width="200" height="130" as="geometry" />
        </mxCell>
        <mxCell id="tI6_fL3ysTr3sA-bvsCZ-8" style="edgeStyle=orthogonalEdgeStyle;rounded=0;orthogonalLoop=1;jettySize=auto;html=1;entryX=0;entryY=0.5;entryDx=0;entryDy=0;" edge="1" parent="1" source="tI6_fL3ysTr3sA-bvsCZ-1" target="tI6_fL3ysTr3sA-bvsCZ-6">
          <mxGeometry relative="1" as="geometry" />
        </mxCell>
        <mxCell id="tI6_fL3ysTr3sA-bvsCZ-11" value="&lt;b&gt;request / response&lt;/b&gt;" style="edgeLabel;html=1;align=center;verticalAlign=bottom;resizable=0;points=[];labelBackgroundColor=none;labelPosition=center;verticalLabelPosition=top;" vertex="1" connectable="0" parent="tI6_fL3ysTr3sA-bvsCZ-8">
          <mxGeometry x="-0.175" y="2" relative="1" as="geometry">
            <mxPoint x="57" y="2" as="offset" />
          </mxGeometry>
        </mxCell>
        <mxCell id="tI6_fL3ysTr3sA-bvsCZ-1" value="ms-spring-product-client-api&lt;div&gt;10.5.0.6&lt;br&gt;&lt;/div&gt;" style="rounded=1;whiteSpace=wrap;html=1;strokeColor=default;align=center;verticalAlign=top;fontFamily=Helvetica;fontSize=12;fontColor=default;fillColor=default;fontStyle=1;labelPosition=center;verticalLabelPosition=bottom;" vertex="1" parent="1">
          <mxGeometry x="90" y="290" width="200" height="130" as="geometry" />
        </mxCell>
        <mxCell id="tI6_fL3ysTr3sA-bvsCZ-69" style="edgeStyle=orthogonalEdgeStyle;rounded=0;orthogonalLoop=1;jettySize=auto;html=1;exitX=0.5;exitY=1;exitDx=0;exitDy=0;" edge="1" parent="1" source="tI6_fL3ysTr3sA-bvsCZ-6" target="tI6_fL3ysTr3sA-bvsCZ-68">
          <mxGeometry relative="1" as="geometry" />
        </mxCell>
        <mxCell id="tI6_fL3ysTr3sA-bvsCZ-6" value="ms-spring-product-api&lt;div&gt;10.5.0.7&lt;br&gt;&lt;div&gt;&lt;br&gt;&lt;div&gt;&lt;br&gt;&lt;/div&gt;&lt;/div&gt;&lt;/div&gt;" style="rounded=1;whiteSpace=wrap;html=1;strokeColor=default;align=center;verticalAlign=top;fontFamily=Helvetica;fontSize=12;fontColor=default;fillColor=default;fontStyle=1;labelPosition=center;verticalLabelPosition=bottom;" vertex="1" parent="1">
          <mxGeometry x="674" y="289.99" width="200" height="130" as="geometry" />
        </mxCell>
        <mxCell id="tI6_fL3ysTr3sA-bvsCZ-10" value="libs:&amp;nbsp;&lt;div&gt;micrometer-tracing-bridge-otel&amp;nbsp;&amp;nbsp;&lt;/div&gt;&lt;div style=&quot;text-align: left;&quot;&gt;&lt;span style=&quot;background-color: transparent; color: light-dark(rgb(0, 0, 0), rgb(255, 255, 255));&quot;&gt;opentelemetry-exporter-otlp&lt;/span&gt;&lt;/div&gt;" style="rounded=1;whiteSpace=wrap;html=1;strokeColor=default;align=center;verticalAlign=top;fontFamily=Helvetica;fontSize=12;fontColor=default;fillColor=default;fontStyle=1;labelPosition=center;verticalLabelPosition=bottom;" vertex="1" parent="1">
          <mxGeometry x="368.11" y="580" width="200" height="130" as="geometry" />
        </mxCell>
        <mxCell id="tI6_fL3ysTr3sA-bvsCZ-9" value="" style="shape=image;verticalLabelPosition=bottom;labelBackgroundColor=default;verticalAlign=top;aspect=fixed;imageAspect=0;image=https://www.cncf.io/wp-content/uploads/2022/07/1_74Ds73EYN-uqliyrxp1OKQ.png;" vertex="1" parent="1">
          <mxGeometry x="396.85" y="620" width="142.52" height="50" as="geometry" />
        </mxCell>
        <mxCell id="tI6_fL3ysTr3sA-bvsCZ-15" value="Jaeger&lt;div&gt;10.5.0.5&lt;br&gt;&lt;/div&gt;" style="rounded=1;whiteSpace=wrap;html=1;strokeColor=default;align=center;verticalAlign=top;fontFamily=Helvetica;fontSize=12;fontColor=default;fillColor=default;fontStyle=1;labelPosition=center;verticalLabelPosition=bottom;" vertex="1" parent="1">
          <mxGeometry x="368.11" y="850" width="200" height="130" as="geometry" />
        </mxCell>
        <mxCell id="tI6_fL3ysTr3sA-bvsCZ-18" value="" style="shape=image;verticalLabelPosition=bottom;labelBackgroundColor=default;verticalAlign=top;aspect=fixed;imageAspect=0;image=https://www.jaegertracing.io/img/jaeger-logo.png;" vertex="1" parent="1">
          <mxGeometry x="408.11" y="900" width="120" height="39.1" as="geometry" />
        </mxCell>
        <mxCell id="tI6_fL3ysTr3sA-bvsCZ-25" value="" style="endArrow=classic;html=1;rounded=0;dashed=1;entryX=0.5;entryY=0;entryDx=0;entryDy=0;exitX=0.5;exitY=1;exitDx=0;exitDy=0;" edge="1" parent="1" source="tI6_fL3ysTr3sA-bvsCZ-1" target="tI6_fL3ysTr3sA-bvsCZ-10">
          <mxGeometry width="50" height="50" relative="1" as="geometry">
            <mxPoint x="280" y="420" as="sourcePoint" />
            <mxPoint x="390" y="530" as="targetPoint" />
            <Array as="points" />
          </mxGeometry>
        </mxCell>
        <mxCell id="tI6_fL3ysTr3sA-bvsCZ-26" value="trace" style="edgeLabel;html=1;align=left;verticalAlign=middle;resizable=0;points=[];labelBackgroundColor=none;fontStyle=1;labelPosition=right;verticalLabelPosition=middle;" vertex="1" connectable="0" parent="tI6_fL3ysTr3sA-bvsCZ-25">
          <mxGeometry x="-0.0545" y="1" relative="1" as="geometry">
            <mxPoint y="-1" as="offset" />
          </mxGeometry>
        </mxCell>
        <mxCell id="tI6_fL3ysTr3sA-bvsCZ-77" value="Text" style="edgeLabel;html=1;align=center;verticalAlign=middle;resizable=0;points=[];" vertex="1" connectable="0" parent="tI6_fL3ysTr3sA-bvsCZ-25">
          <mxGeometry x="-0.9014" y="-1" relative="1" as="geometry">
            <mxPoint x="1" as="offset" />
          </mxGeometry>
        </mxCell>
        <mxCell id="tI6_fL3ysTr3sA-bvsCZ-27" value="" style="endArrow=classic;html=1;rounded=0;dashed=1;entryX=0.5;entryY=0;entryDx=0;entryDy=0;exitX=0.5;exitY=1;exitDx=0;exitDy=0;fontStyle=1" edge="1" parent="1" source="tI6_fL3ysTr3sA-bvsCZ-10" target="tI6_fL3ysTr3sA-bvsCZ-15">
          <mxGeometry width="50" height="50" relative="1" as="geometry">
            <mxPoint x="570" y="605.45" as="sourcePoint" />
            <mxPoint x="740" y="765.45" as="targetPoint" />
          </mxGeometry>
        </mxCell>
        <mxCell id="tI6_fL3ysTr3sA-bvsCZ-76" value="&lt;b&gt;trace&lt;/b&gt;" style="edgeLabel;html=1;align=left;verticalAlign=middle;resizable=0;points=[];labelBackgroundColor=none;labelPosition=right;verticalLabelPosition=middle;" vertex="1" connectable="0" parent="tI6_fL3ysTr3sA-bvsCZ-27">
          <mxGeometry x="0.5403" y="-1" relative="1" as="geometry">
            <mxPoint as="offset" />
          </mxGeometry>
        </mxCell>
        <mxCell id="tI6_fL3ysTr3sA-bvsCZ-31" value="" style="shape=image;verticalLabelPosition=bottom;labelBackgroundColor=default;verticalAlign=top;aspect=fixed;imageAspect=0;image=https://miro.medium.com/v2/resize:fit:772/0*Spmp2n0yFB7kdryh.png;" vertex="1" parent="1">
          <mxGeometry x="386.22" y="62.14999999999999" width="163.78" height="85.71" as="geometry" />
        </mxCell>
        <mxCell id="tI6_fL3ysTr3sA-bvsCZ-33" value="" style="shape=image;verticalLabelPosition=bottom;labelBackgroundColor=default;verticalAlign=top;aspect=fixed;imageAspect=0;image=https://bgasparotto.com/wp-content/uploads/2017/12/spring-boot-logo.png;" vertex="1" parent="1">
          <mxGeometry x="115.00000000000001" y="315.62" width="150" height="78.75" as="geometry" />
        </mxCell>
        <mxCell id="tI6_fL3ysTr3sA-bvsCZ-34" value="" style="shape=image;verticalLabelPosition=bottom;labelBackgroundColor=default;verticalAlign=top;aspect=fixed;imageAspect=0;image=https://bgasparotto.com/wp-content/uploads/2017/12/spring-boot-logo.png;" vertex="1" parent="1">
          <mxGeometry x="699" y="315.61" width="150" height="78.75" as="geometry" />
        </mxCell>
        <mxCell id="tI6_fL3ysTr3sA-bvsCZ-35" value="Grafana&lt;br&gt;10.5.0.3&lt;br&gt;&lt;div&gt;&lt;br&gt;&lt;/div&gt;" style="rounded=1;whiteSpace=wrap;html=1;strokeColor=default;align=center;verticalAlign=top;fontFamily=Helvetica;fontSize=12;fontColor=default;fillColor=default;fontStyle=1;labelPosition=center;verticalLabelPosition=bottom;" vertex="1" parent="1">
          <mxGeometry x="370" y="-210" width="200" height="130" as="geometry" />
        </mxCell>
        <mxCell id="tI6_fL3ysTr3sA-bvsCZ-37" value="" style="shape=image;verticalLabelPosition=bottom;labelBackgroundColor=default;verticalAlign=top;aspect=fixed;imageAspect=0;image=https://upload.wikimedia.org/wikipedia/commons/thumb/a/a1/Grafana_logo.svg/1200px-Grafana_logo.svg.png;" vertex="1" parent="1">
          <mxGeometry x="425" y="-190.99" width="90" height="91.99" as="geometry" />
        </mxCell>
        <mxCell id="tI6_fL3ysTr3sA-bvsCZ-39" value="" style="endArrow=classic;html=1;rounded=0;entryX=0.035;entryY=0.931;entryDx=0;entryDy=0;entryPerimeter=0;dashed=1;labelBackgroundColor=none;" edge="1" parent="1" target="tI6_fL3ysTr3sA-bvsCZ-32">
          <mxGeometry width="50" height="50" relative="1" as="geometry">
            <mxPoint x="200" y="289.99" as="sourcePoint" />
            <mxPoint x="250" y="239.99" as="targetPoint" />
          </mxGeometry>
        </mxCell>
        <mxCell id="tI6_fL3ysTr3sA-bvsCZ-40" value="monitoring" style="edgeLabel;html=1;align=right;verticalAlign=middle;resizable=0;points=[];labelBackgroundColor=none;fontStyle=1;labelPosition=left;verticalLabelPosition=middle;" vertex="1" connectable="0" parent="tI6_fL3ysTr3sA-bvsCZ-39">
          <mxGeometry x="0.2569" y="-1" relative="1" as="geometry">
            <mxPoint as="offset" />
          </mxGeometry>
        </mxCell>
        <mxCell id="tI6_fL3ysTr3sA-bvsCZ-41" value="" style="endArrow=classic;html=1;rounded=0;entryX=0.035;entryY=0.931;entryDx=0;entryDy=0;entryPerimeter=0;dashed=1;exitX=0.5;exitY=0;exitDx=0;exitDy=0;" edge="1" parent="1" source="tI6_fL3ysTr3sA-bvsCZ-6">
          <mxGeometry width="50" height="50" relative="1" as="geometry">
            <mxPoint x="393" y="290" as="sourcePoint" />
            <mxPoint x="570" y="161.01" as="targetPoint" />
          </mxGeometry>
        </mxCell>
        <mxCell id="tI6_fL3ysTr3sA-bvsCZ-42" value="&lt;span&gt;monitoring&lt;/span&gt;" style="edgeLabel;html=1;align=left;verticalAlign=middle;resizable=0;points=[];labelBackgroundColor=none;fontStyle=1;labelPosition=right;verticalLabelPosition=middle;" vertex="1" connectable="0" parent="tI6_fL3ysTr3sA-bvsCZ-41">
          <mxGeometry x="0.2569" y="-1" relative="1" as="geometry">
            <mxPoint as="offset" />
          </mxGeometry>
        </mxCell>
        <mxCell id="tI6_fL3ysTr3sA-bvsCZ-54" style="edgeStyle=orthogonalEdgeStyle;rounded=0;orthogonalLoop=1;jettySize=auto;html=1;" edge="1" parent="1" source="tI6_fL3ysTr3sA-bvsCZ-45" target="tI6_fL3ysTr3sA-bvsCZ-1">
          <mxGeometry relative="1" as="geometry" />
        </mxCell>
        <mxCell id="tI6_fL3ysTr3sA-bvsCZ-45" value="Actor" style="shape=umlActor;verticalLabelPosition=bottom;verticalAlign=top;html=1;outlineConnect=0;" vertex="1" parent="1">
          <mxGeometry x="-170" y="325" width="30" height="60" as="geometry" />
        </mxCell>
        <mxCell id="tI6_fL3ysTr3sA-bvsCZ-48" value="" style="shape=image;verticalLabelPosition=bottom;labelBackgroundColor=default;verticalAlign=top;aspect=fixed;imageAspect=0;image=https://grafana.com/static/img/docs/time-series-panel/gradient_mode_scheme_line.png;" vertex="1" parent="1">
          <mxGeometry x="1091" y="241.53" width="129" height="53.4" as="geometry" />
        </mxCell>
        <mxCell id="tI6_fL3ysTr3sA-bvsCZ-49" value="" style="endArrow=classic;html=1;rounded=0;exitX=1;exitY=0.5;exitDx=0;exitDy=0;" edge="1" parent="1" source="tI6_fL3ysTr3sA-bvsCZ-35">
          <mxGeometry width="50" height="50" relative="1" as="geometry">
            <mxPoint x="900" as="sourcePoint" />
            <mxPoint x="1080" y="280" as="targetPoint" />
          </mxGeometry>
        </mxCell>
        <mxCell id="tI6_fL3ysTr3sA-bvsCZ-50" value="" style="shape=image;verticalLabelPosition=bottom;labelBackgroundColor=default;verticalAlign=top;aspect=fixed;imageAspect=0;image=data:image/png,iVBORw0KGgoAAAANSUhEUgAAAnoAAAEyCAIAAADiK+rHAAAAA3NCSVQICAjb4U/gAAAgAElEQVR4Xuy9B5hcx3Xv2d238+SEQc6BJEAQDCABSgwyzSCZ0vojlbx+KznoeennJD1Lfp/9tBZt7SeH9cpUWMlPtCzaViBFS5ZIihQpMUokSJAgiJxznBlMDp2793fqdF/0dM8MZoAZYGZQl+Cd6roVTp1bt/51Tp065T2wd2N9TSgaTLd3DYTqluW8FX5v1vFk/Y7P4/Hs2L7rmjXXvbN1y8qVK9PptM/n85orY65gMLh3795Zs2YR2L9//xVXXKGPsplMtKIimUz6A4FcNksuTy6X83hSqZTX5/M7Dr8cny+bzXq83mQq7fX7vR6Pk0kTmcnmMrmsh6ep1grfsc4znTt3e7/170//xec/1zS72evhYSrgeMnrBIIej3fbO1uuuWZ1IhH3OhTjz2ZzqUQq4HOyqVR1RfTYvn1Ns5r7vOmsJ9fb0r5g7vw4lTqOPxhMJhJ+ry/oSNVZnzfpy6apN52KhCKx/lg4HEkkk1DueL2O35/KpAOBwEBfPw0MRyOwwpOVJngdJ5GMe700iLbkYJ03G+vu3OPJ7vN5OyEyWjHf410Wii5IZgI5b4DWU6S0MJszzITHOcqU5jgO/KEWCufOo3g8RoD0GZgi/POEQiGeKpNJL5nNRSR33gKRsUQsncs4js+bTfd2HfFlj/m98VTCU1ExN1J1xUAi6HE8oXAok0yGQ6GBWCLryUolPnmnfr9QCG2UnM3kYrHYW5vevP3221OpJG3MZKTqZLwl0bcz6I/3D6SqqhcEoktznlqfLyhM8MThVy4X8Hl8Rw8fmDtnlj/kpzA6VC7rTWWEKj8vP9vv8/aeOrknGM7AiUQyMHPmMk+uOpcNkpErlc14SSlvM88W0+nk/SYSCW0p1BIDx+gD5PJ6+hOxwwMDJ6DB4w2GI/NqahfSEYKBaDaTymWy3pwUmMokA4Egv7KZtD/gSVK3P5rL+XgH2RwtTnqlL1D5QFvLO+HAAL0wlgiEq1dWVM+jLukPpvcqbQT0J+ziFRBJQF+ikgf9fAXhcBhO8nTXrl3XXnstCTQjTymQbwSq6BAhf8iThb0J3iNvkPcCHwLBEB3VyXkq/EEfX0oqFe8889D//eD+3TvX3LD2D//nZ2ORUC4SSaayoWBE3l0m+/bmt29af2NvrCcU9PvouImUEwzzFqgLqqCQAAQY1skFedo0whBJQyAgHudDEfI0Mc0kr3KeVwDnCXPpUy1n9Hcyjj4xKaluTOlt+SOza7ryh96r3bL4DivovTqAEE+v5s5Puu7IXCp/qhk13uWhFqU16uegX8qQVXgTvR0MMYwSWa+T8kS5e7xpYmTwBEAYK3P09VLKtDId8d3qtUr5Wfg+vDnARCKkLJOuOEZ+yiPiGC49PoZkk4ZMWR/hZMCbZJTMZauyHn/Wl84xJAoljJXyuZKYzzBHbpOJnzAyH086808ivZ6UZKQIycEgTVIySY1SgORl+E0xpHlypCGXeai0mLJHvKRpQr5kh1Yf47Un5fMMeL0CgWBP1hPJ5oIwFpzPF1sYbhRuhyleCjSPzKvQ0Ijjjr4UIZ+GSTZwKO14BpicMBPI5ULJbAga4K0p1DBfuEfnIyJfl9aj1bldqvBU0lBmIDcg8x6BqHDaU03reCceb4oJg6TMBXhrdCFTtFRFUFieM2RJRRlYRDfz5HinVAJKOZ6cQxqemjr01SkV57wz0SIvBNBvU0CwqYP2gvTCBkMFb50q+CXoD4XmSVpS8rpMr5SbfAik5EOEwgFaSlKKSvvC9MByOor4M+gh33J5YqlrKJiRWqVL5hzpe8IgLqo38RKGFyA8/wBJwxdQUBlJDpieS5svR946v00C2kKZ5KXPeT0+2mze9tlLKRkOxoakk8zDpS8u2YYnPwd4v6AOb5N5lTsjZBal88XJQz/oxUQQChEzdEaoMcW4MzpqB3X+UWRBtED2kOm+9nk4RqX8HEXekZJ4M7EEz83IyJAp3zvAJr/kAzWjFaP2MMNHccH6iebv5gFDg5QsA0H+ysfwqxCpbDAgKuOx+ckf809SMYzK0CvjIOglpcmww3CmlAkwC6GSnFi3diiXXGZM1dKkFQz3ArfSMEYu/iKrGMr4kc0ICDHk+WToHRHVTJZBF8JnoaEUC23Uy3jJmzINkiFe22bqPtt6gpJRyyoby9xHZ+G2uFa3HwymRX5RHa8MSkxdZjA3HE4zH3EnKEIeVQjkSCpDmEuMCYsYpIHC3RAP30y3oy3MIZDCKNM8yPh8aaFV4FMyuq9eOCKtNJFFJZK20BGk32nYsNIkH/WFtsBMrszb5A0Lamrlcpf3KRXn37VpARTCFRH1JCB9TasVRgnfDGGGI9IdZJ43FEXDwZJhpvLT1FC4yl6xPDDlG+5IG/K5lBf6SyBW35shibZl0TwxJ8iimEGpkmL+ZFprejgppV2Gtfpa9FsqpqMQLqHfJa+8XUNSPlSRNm4KcEAGJqQBo4/hXYNk4C6B8vd+yRsDhYq4RuEnGrjzImno73GYomADwCp6NWUI9Rb/HCbXqKK9H/nghwWRdKgSMUQkS7Ly5YvQZwQlo1cuHQAhRT9C9yW5MWZUl4FKRgcziPJbfpoY/SkpFGbNCCI15quQzAL8MpkWvDIzdLn4iwBAgNbnh2aELJm7i0ypoykPM5IGWVIzCR0i0ArcIt94swaHzRAGOQpI1Cj6RaHBEJ4X7U2l2myFnQKdSozctQ5JI5AD8pgypBjTXB0lzV1LMjWKTG7K5srHSwGlGO8+GivcSnMNQcJuw/JBdfE+hSIZ4hH1BW69noBiYRE9pk15krQEU6a5gE9DnKCAaZEWlUEBLYkE2EQ7IWmkFm4Z02L4r4BipDySmnmNyZIHSJkIyYuW+ctYLoFbsJ+acsi4IgUyS2MyJfDjQS+S72JKv2CVeSUyvuhUQd+O20CpWp5AvWmokDfEVfbK8mkKzSvNMkx6iHC/gLyiQZknr9G8JxMQkuljwh+vn9mDL8tkVLqumU+Yh8I1vl+dQpmP1pSMwkpKGXy5X2s5VeWz+PI0pcXZ31OHA+4CwcDAgFmu8gG9qnGdVI1wwZXZAKCrnZC7izijplaHmVEml1GJT8BdKNGVFH6WfxejLNFN5p01e47BIaPnlMFXoMyMgDLKq7wLqOmnXFK6Sj8yaOkAAyfMcJEx0o8MnAq3Osop1JixIT+CuHBrBgOBRTPTZxwXmEe4MqAgkqiUQ1AHd34YKcqMQMCkrN2JlCvwz/+iSiOvodWQIHN+gVtBZFlclRhTodFJS17TasmnQKVQkaeaPy6dpsyz0KuYVYgyJBl683oCmRPJ0C/ypTZamiAVm3LMZThRCrRnH5mQtlUjze+y9IP7H1yQJXaVyYQeajGtdkQrwJqu0YtKTMa8cYoLCpPkLeg/Hhv2GiYX6JVOYQZ2VAzKWDNpkTTEivpTminvSvlMGnkr5GH11MRLeilV2i+8YpFUWp8vVyYr2vUyiKtag6n+nBdLwkLBWbgFe4ly/J6A6VFJGgtl0hKj4TAdSYDYUO62Mf9apNdLTzSQbOCKjlL0ys6SU/4izDN57wWmDaK9TFugT813JnSYqZjhkekwQpmhQThpKKBjijIcswGBW/lmiZdvE/bKP8PerJJrdBvmfcirLTQzT4++WfezHURl2Y9hmlmWzkZMEQ6gN0Y9e+LECZdeNRkZPIxc+sbIIFZAFqghjJ0QkWPvkGaMGe1FPfn1XUJcYkuBsY58nKMvZOjK/E44KDgkCkCK4wPOjxRiTaFrSKitRanrDr5nC1JxW2lSahhQoCmlxJmEOpjx0eehxo0xDDBjiiASQYYP0hiQkOGH0Q5pRfhtMNXE80skJ69XhlGjEDZjqIxIUhXL32ZskpZo1YC0BDLItKpMFugzo5BkUHkaMx5pnBmRlZ0y8BkY4CpMPiSsj7UhZhg2w7aM2yrXioBtSocuP4WYfgEJMjkA57Q8k0Sbnk9u4ssvKcnEuonL0wwRI6lN+0THqJVJzUKvWR9lJVekIi9qZGFwkOFbQciU5VZaXnKeDAFRKS3fCkVQMVbi3cioTjKFVeFyRiYx4ENQ3qy+bQEwQ4xMp1SqFk4Lo4RL0mTsp7Tl5UQME2M6ibYbnssL8CNkYzxHgeZNniXYsMcQIw8gSxZo89NNs5KQ7wT5aYr0MYRz7QwltQ/3+eVnKWW0Dgm3pkZprulXhhXmF//nY00Cwz8p2Pwx3Urh1rxcosw8Iv8qzXPpw0a9zHuWZ+aDHnSV0O/+zGbPT2VXUrz9OUk5ANYePHjwySefvPfee5EgddB2h/HJQzQSLaRCD7QBeM8+++zHPvax6urqIb+jEcnOj10jpnEfyuqpDA/me2HqHMEUMZkcF/545y1ZbBarxEAXRZzc5Kf5wGW4lCr9Yooy9KVEKGVwQTUSyYLR49B5SmPF0IPxQGQyGQGNQpvl2ZzXGDd5jCUIZOSlTzNqk1qGRqO3ld9mmJb1W/lDSaYZph69yxB8VtqW9FKISMYCDpJGRzQZtOWRGapMZkMC6le5i6q0ACbFcGtGc56ZUU3DMn0xqWW0k7U0XUnVsCBAfjlcKDXJyi/3kXkVefQvT1YWIyOv0A7fGHaVM3kKjVES+nRjz4WKFcYK/9RCuqwg6WrlkTLuKyuFcMBTxntjI6ZSFO0XPkh3FRoEbo3a07whg7Uw2RRAGpk8mQUCeW7iJZViY3nVw8XIbFTLM29MSjPrxzLFEWyVXl14HaYaqU76G3zwiDUylDI9kllKvt/rfE1JJqnBsuFqv8B4A7emN8mqv6E3f8nr0+5hWiecMb0aeuVL4QPhP7U5wPZA8sq0WLo6yc1EEwN9eTv5mWkZ3JYAcKGPSUUX2CibfTJzAIg9evSoix9jGFsueqtUqStqQnOBL0uXLnWN6kdNjvk4RnvJwMWYCJeokaorKipcQ/3RljFMOoQAnjCcyOBrjEf4WMVASb84Gf7yQ/YQ5EKNC7fKDu4yVzLfq44blJ8fNHTgN8/c1ptkMnYIEVKRGXAZfGSUkFGQyLRO0Nlegj7dkxRdNWNPjoE8wG4a1mhFIykgzf4jwQ8AQIVaBtNANiXVsvvEAABMN0OwDLVSuMziGaqFByaLYqD8UupNvFCruGNEBdM2Q63wRtqCXi9PLdGSRABP1Ke8KlOCVK7yr6xiSgG0UpHMMKAApYOHP3kk5RpuFT9y05uncg16KoghfKNGAXmRsoVOKc6MvQKRRvduXoxbuFuXRgpdMg8y/aNAST5sXp+AqyybG8AWxhqdvCldLgFUooUynghBIm0bBDEqCCndFCCLAXk9qqSW3PLcFDLay3DEzJ3y/4TDwgEhyXCCBDyiWH0jVIBob5hhAF7qo6V5fYCAK7kEfA015s8QVzHbix+Xv6AhMheiTFtlimC+M5nnmemiLOuYJPBTpi/CMfk61JYbTbInQBh+STscv1guo2MW9pmPVyae5tWZ5hVpC4ppHo7OknYN0z9HaJN9NKk5gHYU+pAXVa5VSJucFEOhDBoG9rhz6abHiaRWEEkvrcVd1R7uex89MX6VbGT4KXygZogxwp0OATIImiGp7DK7UiVRPqkJuzFmfCuMfzJqmfw67Jnh2B3FaJuULuOlxOXHeEJGqDDlqyySt/qlVsFUeezQABmizMgplXBh2iUFMvhgUiJWVEmFPTOmulp5CjULvGaYK0h4wgMZoSRO6ZW5g0l0NqkEhTC9Sa06pplBU2iQ0Vv+01xCjJZlWnM2sylA6B32ch+dTTNkemGg0GBKlCoklbHfFglOpFwDLmlMqEUiEop1SiFaeiGz+P1KdilIeXm2ZuFenlJGde0UUpHE59+f7MQSFJWUwkVJZ948xjqGJkOeeSzv2kystGrupk5DzJBtzFc95B+TQUs2RAo5pgItX/OcbYmhttAcw6ridDyTpKY/6ZvTRg5Z85CRw73SUX2u8jLgmHDPFK5kuw00T/Ltlae8XmG4+V5VF0VkgcnSjELXyHNY+FvoKsX0DMnzksgh0wzJARs5mTmg+MrbB8xc+2SEOXBlUpFNf3OpUnslfqpV1xjpPPvtjyKjjKV8QXIvGleVXaPIPlISf9asswIJtOTY8WMLFy0knEwlaR4vQ+cUMnaZBGjSienv729tbV28ePH+/fsqzWX2b2E9jeiGnVtAZRQz7udHC8UbdxQj/myMpBGZLw91Mp7kBzxNo4pckVFEEjGylJFGxNJHnDGoFECEeWKQj1FSi2F9UsVZwwMZYWUMNf+ZiPxrcEs0v/OjZX60M3/y1OaHLJPIhDV9IbrQPq1bnpsr/1NSmTHc/C1chaHPjXADedpKHpxzyDZwahqpRee121KlmYUoCwioDJcnKN+U4sokrUvnWYJNe0R2Ne2iRMG1fGXMc8wcybwCqUlsg+USQU3fr9ag6gdjMyv/nW2qhLQBmnB0d33r7uvUEpTX5ss5SwMh7UCSmGfCFW2LpJFuY5pl2CEJTdaCKmJ0xEj6YnadO1d+oUEqpDubmuVuCBPm8FeVIgVqjbTKzmVDnFFBSKL8lwC3VYjXZksSCZ0lqYjdxbQVJ3Cznpt4m2LKcYD+qYjLkK57bRneFXelo2CrUIgnmUKALpe68y0SawnuVl0XFwlQiMrNBEimPxW9VKRWmZX4ISdwxZ9P8QxAy9QsFKt7hDo6OrDzYnkVbOKRYhZPKcTd5kQ85aAQJlKTUbVmJz3rsjyqqalBR61ZpC2+IBY/fBIBvz+TSvtll4PRH5kZSU9PjzYH7NNKidTsNJAYTL6J4am2RRMTL0u2SiIa6r179q5YsYJ0M2fObGtr5TF0UAFoqljb29tLEbfffvtnP/vZW2+9dc+ePe+8885Pf/rT5557juzQrZzlzjXkJ1se6Y5umks++sHjrY46Ol6YwShfhsmYHzs1b6FeE28umdsX0ruB4sRuWMkY8tFwkUVtGdSsfN3lTR2uoPGOV8QtJs8dSt3IIm6cHWcLhJTHlJAoxWii/FsoHs7Nk+LplD4s5oekKB31C6/sArhRoDv/d/AbKI7UsKFzUD91aRoHYsbSDqW0mCphUKGEQrMGU1uYspBO5hR6mb8F4ge3fyz02LTTmQMM6Xq5jQQkTp48iQSlMS6Idnd3A10NDQ0KuvpUwePIkSMso5KRSNIDFshgbW1tRKpXClBQMVg9VChMkquqqgrTaApsbGwEJsmuWO4SoylHfgHQ397e/ulPf3r+/PmUtnXr1q985Su1tbVqdA2FAB6wRTJo05XXT3ziE8Q89NBDuFHjKSZXCnB1dXV/8zd/8wd/8AcqTEajeESsUOxUSiDP9aRGPCBI+q6uLjwqPvLII1RKLaA+bVE+wDRKI9eXvvQlWEpLuUgjExpiCbkg/6lPferDH/7w448/jtEavIOU2bNnv/baa/PmzaN5y5cvf/nll5955hmc0gGuEAFDleM6m6Dcsa9jj8xY+9RywHLAcsByYNw4wFjNxUANImqhikmEgUx9xPAO/IALjPCnT5/mJ/IfoEIaBvxly5bx6NSpUwz4FNLX17dkyZKmpiZwARwiEsQ6fvx4fX09PwE2xEGgC2gkO3ADfoNqu3fvxu8vMaR3IXY0WEsWaoc8yH7hhRfAvCeeeGLdunXkhTaUrwAqoE6xUE4yUExh+NixY9/61regFqkSONuyZctNN92EwTMkPfzww7QUqiD4m9/8JthHabCCQqiLO5XyU+lnakJ1hw8f/ud//mdKBnfXrl0LDJMSrIUh8BbEvOuuu+677z4CWg4Fiu6eIshz8803nzlz5s4770R+JbO72QgbNpgIdCuUfuYzn6F0IJ2CKJrG8IjioFVbC+kUaC/LAcsBywHLgUnIAcZ8RuwSYFOJFsxA6CQBoz2gyE8uQIgY0gMKRLojPEpQ4sEOgFbHf3IRw09ygdAAGztl4QBPAWAeAUhaL7mIQcokjYC/uUbPK/BMS4MYkAjkQo7cuXMnBACoVNrc3Lxt2zaq+OEPf0jTwKkNGzYgLlILSlnIQ6QEMhGLN27cSCEAMCD64x//mFkF2UlG+WQkoIhLgGTEwA10up///Of/6I/+iHYxaVi9ejW54Mz3v/99wPVrX/saedH4UiktglQyal4H1lAQgHr33Xd/8YtfVMz/t3/7NxK98cYb6I3B6qeeegpSIJf2EKD67du3QyvQS7IdO3YwoaA44pWVOhcoeZ2jZ6VNaTlgOWA5YDkwQRxgwEeGe/DBB7V8HagBEmRQ4AARds6cOQhdpAE8kFABFYRFVLKk4SloBCgQBixBXJLNmDGDosAY8JiMhJEvuYhXkUyXGrmroY+CMXkBDsACWFIauI+MGn/9138NsKlGloxUff3111Pmn//5nwPbBKD/hhtu+Iu/+It9+/bRitdff/3gwYNI4QAWj7785S9zV2hDNn377beRG4nZvHkzMi7p4QyzBJCY1iFG6hyCxhKpqmnIgw833ngjtdx///2rVq2CCRzPg1bgpZdeamlpQc5+4IEHQHTOI6EK5gFQC0OoVNq2cOFCkJISAVrlKc2gaACYdKSmSmYKGglDwXbCRKougjuJIY7Eym5KgyAqGJlxE9STbLGWA5YDlgOWAyNz4NChQwzjKiC6EqebRUd4RnXGeZ4qYBBJQO/EM85reo0pzksyTQBKEaYcnip0cQdrQDUuLbZY5CXZCKih8iUaaaqmHBKroMhP1cUCRuA3MAlI8ZQwAMxTJGnq4imPQEeqgAayQJ7OIQQIzfFiGlCghWwuyCMxdx7RUm0ItVOmC4X85KJAFWf1+C/qVUBUplGIcGDu3LlMQ6hVJyxQQBuoT+vWCqiDPOQnUllJQZCizSYjybggiOxgNvWNzDj33diA5YDlgOWA5cDF5AADNYKXIhb1uoM88UQqOhIPEGiMjvPF+Kqw5KbRlPwku5vMbZHAjLEZ1ro0oE9LoHpkJrhwSwmEoRM8ojoKJyPQo0dJapkKcqTR1vEUnCISmAQXtSjC2liln6JITJiUlEyZ2nxAlJ+0guykJ5KfCvBaGjEKrqQhr8sH4hWnKVMf+XispChPKZFLGUTdGiAbGcipBbm1KnHUrS1UQkdmmX1qOWA5YDlgOXAJOcBwrSCkdx3zFUFVnlPaFMaK4VPTa0qgQctRrCKLiwIEFGCIVGDTAhWxuIM4GkPV5Xwgi17ljzRGC9eSKUGxkJ8qKCusujQQgGAiSUBiIFmzkEtTKlhqmZRAesRFiKThXEqhYp/ioBKvTEAu1YZrAgonwAVCU47So+wlhoBXjb+Vs1BAQGLNVWh16aK6ywXNpT+Lw9A6JKeK05QnGPmpy+jyjMWPRihkhEdumTR5CpWv1Ja3a4RWDNc6G285YDlwmXAAFGGZ9qMf/eiHPvQhxgoV0VSymlQcgCTgH/LQmIJNLKmyMqrwNCSd5SPhkMkuYaR30aJFxaMzFOvlYi2B4glOMa3lw7o2WCdB5a3SmUJ5vJt+ZH651RUnK6dByx8yzTQrv6TtQ/KnnNs2xnLAcuBy5oAiK1IaBj4q/DF0MDYON5ZeKl6BF5Cnd2jAtArLJkyiVGFbTtV40T8cTAyHX+WUjC2G+lwZd2w5bepLwQHel168tYnqE5eiXbZOywHLgXHngC5YugPFZB4xigc0HeKGk/3GnUsTUaAYN6mam6mBzg4U212EJ3I4adVN41JWHlNM9HDlaJqR82oapbCY48PNaIpLU+X2NC7fZUI5fyai09gyLQcsB6YuB3TFkVGRARlJkTtGvGpANKkapZI3oz0BcIoAEwWGuOFG8pHx5cKbNhzWjL7k/AKtZhiuGcNVM1z60VdvU14IB9zuVfwiCE90t7sQmm1eywHLgUvLAR0fGChcg6BLS89wtWNqpPhKAh3WQKIRpNvhcGq48scaf+F4JzuroFIJLWmJq2QYrpri5g2XZjRNKmFTeVHnTDByLefMfs4Ek7P8yawFGplj9qnlgOXApeKAbo9hmGXALx76Jts0Xcc3KFTcddlVMlyPOxsnrnxxT+GSqzh34ZUNV0I5jl4Ip4arpbjMC6lxypWvBHO3MHwh/crmtRyY9hxgiABckbV0rNBxchKOG4xm0Iaimzfi2k5fyKg+mjc7XPmjQYSRyx9kjcYkgnegO4c0rBUMJ7+PF1nDlTMc6WNt9nQtn3dE03g7uqrBpJUPRq/hWGfjLQcsBywH4ICOomMdGy8V66CWSycEw43/k78tg+CW6QNeKPFNBd1cbHjS3cHaPJ7qujocZ3xXR1S0n0GfnzpXIqAx3Bn91QOGPiWGMilKmeKyzGXipXqRU7deZZ3LSfyTqQfsyd/tpi7PLeWWA5YDlgPnx4FBTj0URBmsgUl1JgmIMppz58KejbsO5WAnHjT4Sa0KtMQAxgq3AC3JsCUjoG4k9ZGWxiMCpCTAnev8SLe5LAcsBywHLAcsB6YKBwbBLciKlhzgVBQEFAlzEQAvwWBahYwLiCLRIvuClwR4pMCpuEuYi1y6IK+FKGYrDGtpmox4C7dTpa9YOi0HLAcsBywHzpsDclaDewGlhItlUOCQC0AFVnlEGMhEaYnMqiuFxOgKtqIvkQTAWhLrXUvjJ7BKSgVXSnOBFiFYUxZTYsOWA5YDlgOWA5YD04kDg6RbwBIdMgDJRSN1pRZcJIwwyk8Cir4AJMCp8i5hHrnoq9KwK7xqOZqXLArbPCW94rTF2unUn2xbLAcsBywHLAeG5ECpMllxUfXDyKkAJGHuqh/mDtxy5xHFoXnmAjgJk0xPGVRg5q5oSgCI1QsU159ALE+5E0/MkJTZSMsBywHLAcsBy4Fpw4HS849Ed2zEWSRX4PPUqVN/+qd/+sgjj3Bg/UMPPYS1FNCLJlmPMQIvv/jFL3LfuHHjP/zDP3zmM5956qmnKioqlDsEVHIlPZhKFgKqQ9ZFXEVclaSnDUNtQywHLAcsBywHLAfKOTBo7VZBEYwEFBFbUSwTePe73/2Rj3wEaFBAQP0AACAASURBVOT4iJaWlrfeeuvkyZMf+9jHdu3atWPHDj3h78Ybb2QLytGjR2+77bbvf//79fX1APPOnTvvueceYPunP/3pu971LsD72Wef/cAHPsBpgq+++ur73//+uro6wla6LX8rNsZywHLAcsByYJpxoFSZrFpiUBaYRAZFlkVy/cY3vtHZ2bllyxZdeb355pu3bdv2/PPPA7qwAzWynnMAPHd3d/f29r7nPe+51lyvv/76D3/4w0984hNLly795je/uW7dOsTfV155BfRF9lUjKTWemmZsvTjNYabCm1IVPWFddLfTl4vDfFuL5YDlgOXAmDhQKt0CfqAsQKjjOOrfNWvWAKtIt8i7xCPOqraZn4rKjPJkUZ0wyVSZ/PWvf/3qq68mAY+0QOTdysrKu+++u7Gx8eWXXwaYV69eDa1WmTymF2YTWw5YDlgOWA5MRQ44Dz74YDHdPT09SKtAIGhKPKIqCDpv3jzkWgRcPYse1AR0a2pqEF4XL148d+5cnqphVENDA4E5c+a0tbVRAsiKRMvSb1VV1fXXX//SSy/NmDGDZWCU0uifUS/rsUqK31ORfZOBZrina+Qwk7mOlW4nw0uxNFgOWA5YDpRwoNSJIwu0tbW1aJLVGlklV7UfBj7ZcYuQylPGdIZ4FUwZ7vlJehIAz+pGiiwK2G5RBIghJajAHVAnBmwmoDpq+27OjwO8BVXIw3xW0BV6z68om8tywHLAcsByYII4UGqZTDVqMKwGU/xU4Yk7S7MM6xg3EckQD2rqU03PT4Z7Ykim8EkMjzQxyEqBPCKSvK4W2sXsCWqeLdZywHLAcsBywHJgMnBgENyq0AkEcgGZ4KIa4OidSCRXfaqyrCqBNbFu1SVMgMVa2gbWqpJZ0VezKwC7Ck9+qnHWZOCFpcFywHLAcsBywHJggjhQCreAoqqRVUVMrYq1umVWl1oRcHmqemaFT7IoNisAg6DEA7oqGSu4IuC6aYjhIhcJVPk8Qc2zxVoOWA5YDlgOWA5MBg4MglvgUDW9CpMKolBJpKs65hEmToq1RCLLKvQqpmJCBdCCoIrZgLciK4WAvrqRl0fIu+RSqNaSJwMvLA2WA5YDlgOWA5YDE8SBQRuBQEdwFBRU7FRRVSFTF18VhhVfSUbANZuCPnIh17qmTxRFpBZCgPQ80hhS6lOgd4IaZou1HLAcsBywHLAcmDwcKFUmK9Aq6Kr0iTmxCqOqZ3YFVrATsHSXbF2tMgA8eZpnKbEcsBywHLAcsByYDBwYWpkMZaiFgVKMjb/97W9v376dXbZEqlTKHX3yo48+qg1ASwzu6kqtbvuZDA2zNFgOWA5YDlgOWA5MHg6UepVC96sWTAAnCLphwwbWVtevX/+d73xnxYoVx48fB3dJwCosDi5Onz79s5/9jKc4UsZdFD6QQWjEX7uPdvK8YEuJ5YDlgOWA5cBk4ECpMlmXb1EmE0A/fP/99y9cuPDTn/40XqI4geDYsWO33347JxO0t7cDvRw58MADD4C1uJHiqeqZdWPuZGibpcFywHLAcsBywHJgknCg9IgCJFcu4JYLA+Nf/vKXOFz84z/+Yzw1ItcuX76c+JUrV3L8wMyZM++6665/+qd/4sgg/DviphG4RRTG7dQkaZslw3LAcsBywHLAcmCScGCQE0do4nC96upqdMLqYRE7KcKAqB5wiw5Z9/moN0eVgIkBoVEg87PYUHmStPA8yHCtqUvyqh3ZeRR4gVmGo0eLZQIE/wlbJ44XyGeb3XLAcsByYOI4MGjtlmp0r45aFxMGRHVzLTt83EXZ/v5+YJgYBnp3rZe8oJFKxhNHri3ZcsBywHLAcsByYCpyYBDcgp0qqmpA0ZTzfxCbVHjlDqaCuyCuAjNhkmkuAFitlGGE7gsiQFGu+HWppMOp+GKKaXaZrEcZMtfRF4S2nxie8pOLLISnemMt/ZYDlgOWA9OSA6XSrdvIYmhEveyO4wzr7t5chYGSUR5wLRn03RiFhMnPx+GmBZeQfpekYvZyZvDkZ6al0HLAcsBywHIADpTCrQ7riiuEFVyBT5VrdY1QGediqhtA7UwWlXrJqEItAU1ACYhiU5rpw8HwRWiUO8spnvdchHptFZYDlgOWA5YD48KBUt2jiygl0KIWy+6gr7piAFUhWUlRuyoNE1/8CCSe6lg7Luw+70KYrMBtsnN3J0PnXZrNaDlgOWA5YDlwkTlQuhFIUdaFVTfgYqeO9SrmImkRDwAoEhR7tyBGn2qBxWLxRW7hNKgOZqr/EOUqLXJBdxq0zjbBcsBywHLgcuDAsNJteeMVWd955x0eId0q7hIGSl977TUCyK8KvbodiJQ9PT1aDmnc9OUl25iROcDEBZYeOHBg3759XV1dOvXReczIGe1TywHLAcsBy4FJwoGhF1NLpFvEVsVL7i+99BIgeuWVV27atGnt2rX4wcCJI16lQFww+JZbbsFo+cSJE2iPcXyBepl2amnFuuVJ0vipQgYMRLrt6Oh45JFHHnroIeY0dvoyVd6dpdNywHLAckA5UAq3Q8pMSFc6xJNnzZo1DP04cQRK9+7dyzYhvDYePnwYlL333nvfeOON5uZmfCkjjeFeCs9TaiEFElOya+ZjuT8mDqhegckNFxlVda/3MZVjE1sOWA5YDlgOXCoOlPpM1sPeXUlUNcCKlIR5ivNktVLGzxQbhBCzQF9gFRePCL7gwYIFC5DDaE99fb3uxyVspbELfMHFMxUNlyyH65uyGvsL5LPNbjlgOWA5MEEcGOTEkcEaD8kAJ5KTirl4ruCcH7XQ4SmXO+4rlOojJW7IMFm0KDcwQS25DItl361r7w3z8aw5Y8aMIfUTlyFzbJMtBywHLAcmFQdKTaXKiVOIVdWlYi0xJFMNp+qZNRcxwLP7tKQoCwPlvL3AGMvSC2SgzW45YDlgOXDROFC6dkvFxWIoA7pKscCqBlxvFRpTItHiVlBJd5HAFW2tdHvRXqqtyHLAcsBywHJgsnGgVLotEZj46e6mBV911ZY2AL16jEHxmqIu0Kp0W9xOIJn0Kh9PtvZPG3qspDttXqVtiOWA5cC05MAQ0i3tZOwGHblzgZQcUcDRe7qrB2spYBWUVZeNhEmpUEpYs4DKCsP6EwC2lskT0XvUX+ZElGzLtBywHLAcsBwYXw4MAbflymRUxECpQmZFRQWjPGu0WCZDiq7sFuMrj9gdpGu6PFUDWg24gvL4tuGyLa2cn1bGvWw7g214EQfEuKRweS1nLAcmCQdK4bZ8vFbZlDv4yviu+mRFU91cSxZXltVkqmcmrI1E9iWXovUkabYlw3LAcmBac0AHH7CWgEXcaf2qp07jBsGti7UgJZeqghVZCSO2Iqoi2iqOAp+EiwUsN54sLtaSDG6UbBIt4Y+beJR8K58TjJxxqpfPfEU1+cxjit+L8nbkttunlgOTjQP052KbD8ijV9OZdVdb8YhBPImHGz145C5XESCjq0vzevN+xX0+1HL5s8iY/5cMHfo1TTb+WHqmKwdKpdvydtJBwVSQVfu9rNNms/phFMNYcT8eK7yVfHvlNJTEQMA50xQnmOrlqyafFsFk1eTDYbtwO6Y+YBNPHg6436N+yDp00Ml13Cj5WnXYGZL4YqzVr4N7Op3y+53jx4/PnTtXc2FqAmqbryd/oijAXKyQK8HgIeuykZYDF86BUrgtQUp+KrLq8QN8EthMEXb765AUjLX7jhWeL7fyVcGg03/4r1OfIeccdrY+ZIe0kZOKA+xUUKTkRLFiwujSioIEkEQJI6SCncMRXzIO6E/uOJE9euzInLmzvUaNTCHcjOzrd6VeF8WNyDtcDTbecmA8OVAKt1q2i38EgFi8H9M7MZjijlbTnSSOFyEWbkfmJPxRcNV34SZ2D1waObt9ajkwqThAfzZAW2zQpNv9IVMiCzCcd6czAvF8Fy7oaoBv5NXXfrl27Q18NOw+9DsMcaKfQ0ggBjsTRXpVOwPrJZA/Ql32keXABXKgdN+tIp97J+C6CSRcPJ3kp3tdIBH6AYz+PtbqRl+yppxs5UMPowOTfX0v/CxftXUfjZV4m95y4CJzQKGupFK6tDu8AKI6vzwnYeWDElk2bXpr9uxZPq8PrM2KGlnOBtXyNb3F2nMy1iaYCA6Uwi11lGCqqneMYid/aRqdV54fPk1ES6ZxmTr6uO+FIWPIAWsac8A2bTpxwIXSYlgtmdbT23U2P5qGF881WbXl6E+ANp1Jp9IpQJcSkG5LPhn87hQPdKOpxaaxHLhADpTCrXZct/u6AfcLwbsFfZczf/B9cYF12+yj54C7fOsKAQSKR5nRF2VTWg5cWg6Ac7ozkF6tHdsdXrRX6yT+nAIuCVQYUOBUeH777bfvueceGoiAEPDnF8vAWp7qt0MuDvOAAFZt9d+l5Yat/fLhwNBrt7S/ZOpHt2YjEMu3u3fvnj9//ptvvtnY2HjttdeOC6fGOs0cK8xM9fJ1Yv7YY4997Wtf+9GPftTQ0AAHrIA7Ln3PFjLxHHC3wOY3wYppEgsjnmw6lz5zpm3//n3Hjh2NxQagpKGhccmSpYsXL4mEoj7Hm8mmfV7H50EqII9aNBWv+LK8dVZg8Mr6b2rPnu233f4ukFTsrDxedMm4BSCYTCdZu/U5iLs+bKkWL14cjzOgBclTXMjEc8PWcPlyoBRuFZkYynWa6Wp44JC79fPpp5/mUFudgQ7JubHC25CFjBB5uZWv0/yPmAu26M+SOYfyZKI5M8JLsY8uew4UwWqBFyAcFkv88vkCWEERzIGKvhR2CB3dbS+/8kJL64lMJpFKJ+jXzOk7jxzdc2BTIBC5YsWqtTesq69pwlAhnU05PkaqgCkV86aMURELjLKnlkdUQi3U0NpyeGCgvaa6EjWyX3zK+rw5vycrlfr9AerPerJvvPH6ksVLKCgU9GezKQC4CMsv+3doGTCRHBgEt+VSY3GMamM2btzY3NzMiK8uF0pos8P9RLws1ZhNRMm2TMuBceLAIDNjt0yZlPt8IKOaIQtoej0ZT2bH3nd+8vSTobDDP58vFRBLprSZwWdDsvchvWvvO1u3b547Z/76de9aNHdRxuwdQtKlZLAWk2NBWY+XvT25jDFmdhxPNrF/365FC+cCq44/YHYBeXmGaJtKp71+QDq3Y/eOltZT629aj6DNfiTHX7qaNk7csMVYDgzBgVLptjgJ/duFW5ZskW5Z8HjggQcspg7BSBtlOXD5cmAIudbgmVlb9cq6qYwlnlw6ncQr3QuvPLVp84ZoZQTdbzIZz+bYpZP3/UQAl6/JRCIQCFVWh063HvzeY7tnNs354H0fra5sTqbSwUBQUFZwWy5BU8comfFe5/U88eRT93/ofkFkj5ORbT88Rbj1+APAaqa148QzT//405/6n5k0HqycnGias15JbC/LgYvBgdLJnZlg5n2vKKzyzehnwzfDx+NiLZHEFF8Xg97Lso4SPrs/L0tm2EZPCQ6AgzJcQCs2H2bQYBds3B/IfvfxR97Z8npVTSiTjaXSsUwWJ1CCnYFA0DhcFM1zIOhksolkqs8JZCqrAt09rV/+6hefee6JWLw3i2xsUBYQRTVc8MsOBHv6+3rPtLfNnj3n+PGT2RxnmpHQZyYChNLxZN//+/d/+1/+999IJ5Nkk524eL3w+MShhr0sBy4KB84t3ao5n34SDPT85CtS6OVeTKT7syT+ojRkOldi1QnT+e1Oh7YNKR/mIwMBtL5pAC+bS/zLNx+Op3r8LOPm2Jnj9fuDZtLOyi5CrQRwym5WqXATi96Y4SXjczzeoK+yKrT/wM5t27ctWLD4lltua2qc6UPAFR01AqypyOf5+Qs/W758KSpi3f/DoqwsFiNhe7MYXf0/f/uF3/jwR7KJdMgJePiH2pr6vIjd9hCD6dAFp0QbzqqLIZf+3tbWxq41lVwZ5ZkDchAQBsn6FKx1cddiwCV/wd3d3cW7Ffv7+1lWv+RUWQIsBwwHdC6OGRPWxbl4svfRx/69q7stXOHPeZPxZAyIZeWV/a+odEXRbIztmcqziAtMkp1f/Esl2TvLEisnowTxhIHHl/7+WHPz7A+8/9drquqCTkg9NQLM77/3rk/99/82MBC/997fTAPTjhRypvVMQ0PtF77wl7/ynluh6Ob1t3icqAf7KeAWGr05VoX9PsRce1kOTDgHhpZuVTxVrTIQ29nZCSG46iUMEoO+zEAJDLcXxUq34/vehuOnnfGML59taRfMAdV3KXjJNh7MfjmqJ5Hpf/hf/j98KYaiDsu3KHodJ0hd8RhLueoU1mCf15dMpggwiUylkoClOI5NsyybxkFUrL8nEuUgbU8lntsTHV/+6t9dvera9979a5WR6ngs3tpyqrGxgdO4ly+/ErT2I9pmkvv27o6GK774z19fv/aGfbt233ffRzxOOJdIeYN+lm99AYe9tyIl28ty4KJw4NxdjbFej5cHXxnfQVxVL6sL5XIiFaTL423MeXNgOFhF93DeZdqMlgPjzQGRUQtlCuJi6ZH1pNq7Tv3bv3+TZVmWaNkE6w86A7GUHrMRDIYK61HiuxgdMppntMpIvWSneyfiKdEVe3PpTMIJeJOpAVHneL3JdKK+oeL4yf1f+srf337LHS+98PIH779/4eKFmGTt3btv7txloqrLJA7u3dXV0X3N1VcdOXL0Qx/+SLSiRkynUFMD7MYmWQYrq0se735gyxuOA4Pgls7HJUYEfj+myAivaJIBV3UBo3pLtD3gLmFNPGS5w8HDkIlt5HlzQN+IqhmU52rUdt4F2oyWA+fFATFClj2uZinV7It1ZN00lzh8dN8P//N7gaAnWsGibDyN6hb/E443bTbjGksng9Di9cIgL/97vakMoq24PMa6GANnY+vEVh8BSIkx6YkM+UMBf2jzlg1vbd6weMmC5cuXZ7I+duueOXP69ddendPcdKb1FMhdXVN96xV3hqrr004gmWV52K+2zOxIohSH/+xlOXBRODCEdKuHxiO8grIM4qo91jAYzFPdEeSuGl4UOm0llgOWA5OTAwKZYC0+irH1BU/F+4QHnXBm89Y3X3jx2YpKjJDjWBSz8Qb51cArsq9BWblMQPbHFq6iYD5KRGWFY6nLzZ5IDjg+1nSz1TUVdfU1Sxev6OnuT6Uzb7/9ZiDgO3To4KIli5MAbCDcMGdhyqmApq07d/b3DiyYN2fJ3JnYSCHqnq3XhiwHJpgDpb2ND4J1WQAVoRZBVk35iVGpF3mXBFwKwxNMmy3ecsByYApwwCBhzo+5ryiQETwzPk/muRef3rL1zUjUn8klcQvlSYnnJ7/oigV5DWRyFaAVqbj0ctOQCrmWKorTGGU1Xip8gdXXrDly+OSaa9ccO3KiIlqze88u9HFXXXFFX2+/3x+es2BpqKK2K5N78mcvbdu9t6a2PhoKb9q+89ab1qxbvTqb82AlVV53KS32t+XAeHBg0L5bIBYoRX5lqxzirEIvEMsFvvLT1V7yUQ1nJzUeVNkyLAcsB6YMB7AtBrHQIYuYK44jMs+98JNt2zdVVgeRa9kFxIosEIg/iXgiITN4kWX1n7aR3CX/ND6fxov2Wf7lDyUzq7lykaurq5v42tpaNg5hhPXd735nxYrlq1atcgKBlvbOY62dTrT21Xd2/e2Xvt6X8a1Yc1Pd7IVVzbMXXblq4+ZtaKUZ/kQDXgD9KcNxS+jU5MAg6RYEVdtjNUKmQx86dKi1tRVh96abbtKnIC5pCCPyTs0mW6otBywHxpcDeV+JCLIsi774i+fe2bIxUunHTgr7JibuCLQOu28F1rwoewfLk0PKlkS6GEjh+hNDK1GtGWlUVGxsFIpEoocOHZ4zZ04AY+NcekZzQzwRl0MIWs4svWr1jOYFjz7x/KnO3lU3rEPLnMAgOhxJpmKZeDyV8yVzniBTg2TWCeRPkjYQbi/LgYniQKlXKe3IKHy46NGrV6/etGnTLbfc8sYbb/DZbNmyZdeuXQcPHjxw4IDqmSeKLluu5YDlwNTggJw5YATFHFj72hsvv7VpQ0UlJ+2kEwmcRuHdIuOXwwDE4wTOnnBtcV7SpGC0ILDYEstCLiZZ6UwKvVtbW8sqbI+PHn7hheevv/46XF9wlNDseXNnNM//0c9eOtHe3Tx/0UAi7UBEIIQbyKwclxBks1EskcaHlXGbnId2MyGwl+XARHFgkHSrKKvyKxItna+vr4+f7e3tiLlHjhw5efLk0qVLOYPvfe97n+2aE/VObLmWA1OKA7J5VQjOtnWc3vD6KxghZ3NJ9YQsVsq4qkglzSl4vnA4gtsKI0S6wIbMSt5inMvjaoEH+siArECuEUDllg2GAulkqrev59FH/132DmWdefPm9fb2nG49+fKrb2SCDb5o06IVa3piSfbjDiTiR47samqeiUCM+wDE7kjYz+bcwiqylWunVJ+bmsQOglsEVnb+IMXSFjTG3KPRKMfI79mzhwOZecRJq/icWrlyJcIud6tPnpov3VJtOXA+HHAhsQSa2KGDwtjjS2zZusnrZMUtlDeDVVQqDcoaJ4mcAsACL/Ktxxz7UwyuZ7FWizdIPDiJAVr5Z56xNmz+cuBBKn7i5MlTJ1oro1V4nooPpJ78yZOLFi59+dWXnWhdpLZm3rIr+1LpSFVVT0/Xm2+9mfXmquuqQ+FgJOjr7Dj93AtP1no9s5sar1y1GhKNgI6dF3WzNUjIKjTTbXdR3Pnwz+a53DkwyIkj0i0rtQAqXwRhMTI0Rsgs5XKdOXPm+eef51T5O+64A1sqNgVNtD7ZXUqxkvSQ/ZR35BqsEWZKNGPGjCFT2kjLgdFzQC2NZclUYQ+PEWzv8bMWKxcgJLIsRr3y1ECS/OX3wNcffiiZ7udkPJZRg8EAzigARSOTSiL8E5sChrwKdscCbaXJEItlBxHbi6hHwrLNNxIOnThx7MSJU9FINb4sKisrQ4FINh2orZ+Z8YcygZr5K9cHqhoTnIGQTLz1xobauuru/r5bbn03DiSrQ549m16scRKRbIzF2xOtLfMXLlm+bOW6m26pjNRlczh1DHJmX0DOThBFuUF3JQzaSskbsj020nKgnAOlbi6kZ5kFDJmEFg7gA1kReZFu7733XnTL+OYljZpTlZc4jjHlKOvSNo612KIsBywHijkgrirEbYUADdAGwpkD7/J2RDmxMeZYO8yfcPBksFbwOdXT39nb18WqLVjLRBy4kuz5XHmsVbm2WFos1DtI4i15HcZIU0qSz994WPb7nNhADF9RVZU1fb0Df/m5v9q9a8cTP37K8YWN64vqUN2cSFVdHGnVm92ybevKlavq6mq37tqWTqX83uzxwweiQY+TS2AxjTA+d8GMZKZv6463Xnv91YULlq9fd+vyRVfiyIfKCtBqIdZ+IuPAgVK4VYhVrHWL5yefn/5EriXAyi4x5XA4DhQVFSGT6wL8F5c80fWObysuWmmWLReN1dO8Ik7mQSkszpxYlXVUtMsmcpggERa3TpzdjogLFIsnKZA3GXByJ04eJS32v8iGsnmBA2XluB0uxVoVhUUJXNgINFouooVmuk/tAD+FiVI6lz12/GQ0UjkwkPitj/9eY8PMmtrT1Bjw498xvmvv9rv+tzUsFju57JGjR1ZdeWVtZW1/X9+yhcs8yUxl2Heqt6PCmwwJnTm2DDG1oC0ch1BTW9nV1fL00z/8bmf/TWvXv/fu9xtJvtjtlKHfCrijfXU23SAOlLq5cB/q2M0dcZY7NlP4mZL+bi7kXVJenK23Crr2vZVzoBxfibHsKmeUjRkDB4oABbiVhVLAKOXxCcTK5TVCrRzeblY6SS7ujj25zs4O9teiSU5nkuzKP9s588Ls+QuKQL6Pw+DN+q+I0jIKOZ1dXQF/IByquPrqNalUZvv2HdAQS/QPtJ6smzFvxuw5HTFO4stUVlbU1tThPhL/zH5/yPEmjx/eE/FnAnKIfX84FEiQKOPlKfIDJ9szmwihlY74f/CD73P+gSrOx8A9m9RyYHgODIJbvhBFU02vXi+AW2AVTbJGXvwBvRxULKLou+jp6XFfyvCv2D6xHBgLBwwsojHm1Dvgh00zIGzW8WDmhEYZ6GQFVWyKkGdV1yoiLhGyoRY3T6ywOua4eLb9sMwqZVGg/BULZHOy3lgvnGOI/3Y5vxaQNzYlMuPHBipcOaNpNr6V+wf6fvnqq3iwAlJ74vEFc+d2DsTS3rDXcSLRKgAVfA5AWy6WTvV1d5xoqMj6fSlfUOhz/AFyMXVIxJOhYBCbr0w2eerUsV//9Q+cVXBbgXasL82mH4oDQ0u3qj1WBTIdvRhieXSREdeC61Av7mxc+XRk5PT2qeXAOTiA5Or4ECRZIgUrMdxgzt3dF3/2pRe7+nsRMa9Ysfxd116nZ8biR5E9PyJ6ih2TN5FKBoOcFZ/l6Fq8NVJR0aosgqmBW1kSLQi75yDFqG45fB64TuNXBysmZGkf2mQOzuN++MiRV37xi01vvRmtCCeTA3iw8vsrwyFspZNI4362HkWy4VA6hWVnIub1pNpOHmiuDXqS3QN93RXREBI6PjgQyBHPGegQm3u6u0+dbGmsn/WB932gYL41emLP1Rj7/PLmwNBrt/KR5A0j8uzRSSV34vWR+pa6aNwrBhULwC7bLdZetB54GVWEEIqhsSNOE5NJcVKB1dM3H32sccFcf7QJcXDTvkMv/fKN3//478ysRgcrimXm5K1trYlUAq8RepCJgmp+pVNdUwh0qrw7kmHUEHxmvZZT6j0ZdL/sMhqIxQb6mQNg5JQJR0I/efqJRCLO4bmRqKx2JTPZYwe2XrF88cEDR3p7uvp72vGHQVMCfqeqsjIKFGdA34HqaBVkp+WsPyebTvR0dvb09McGkj4Pza388//xl5y6a8T40U4LhiDbRlkODObAENKtjuCoa+i7GtaA4iuISyRPL8LCrcUS210tBy4BBxAO8f9kIpHZvQAAIABJREFUJtyIqoiorZ0D3lA4ge2RP5jIemqa5zTUzviHr/7TH/7OJ+bPrACicp7knr07K6uCRkRkr44YN7H1Ng9XArLqutHA7RivSCQci8e7unvb2vq7u7ri8UQkXFVZVRmPx4hnRRbpNxQOs3CMa+VkXyLZ2/7yMz+orq2pra5qaAxn0/EQrcCg2jvgcLRfFuj1xWKJZDrT3tPb3dONgwxjhO0EnEhrS8ff/c3noqEawwCzCUinCGOk2Sa3HCjnwCC4xW0FmIriSDHV2N+LOkjxlcCJEyeqq6vZ4sb2XLZ4nj59eubMmZrAlTiPHj06d+5cMrJTqK2tjfSYMRfLoyooK3hz5xF38JvEzc3NbkpcWbGRlJ+kxwV5Z2cnZOBng8+4o6NjyZIl2EhjwEUkLmP0rHsohxgtEwqbmppoAo1qaWnBq6pOGrhTgsaTnp9ao0I7/ikpWUYKw4TDhw+zaE172XNMFsigUgqktHJW2hjLgenBAaO/FesnBUv+9PIlYnDsC2aR+cTE2Ek73mvWv/uhb/3r//jv/+3Egbf/4e8+O2dO3YyZi1PpOKJkOi1uLtIsmoqfC5m4i75MJEVuuVRSPkB3Qu/O6d0vkQBfXywWw8dOfyzWyTkEmEo72GThMMPLJ4lNNLgOwlJRMAjMIo6jL04RXVNdvWDefMQB9M2gPv+z6osBFGZcnLvCFqau7p7Ojq74QDzgDyI6OGKWjLo62NMzgPXy733i9xfM43R6+fwxWjFY604RVNK18u706OaXoBWD4JYPABJc+dUlRyEKBAJBgT3QLh6P0+mBMbKAeWRR546zZs3iCwEmuUiDWolkx44dq6mpIYYC8bJGFmx8uru7eQR0cem3B8gB1YBlfX09NSoekxgMxq0V2AlyA3vk4jskJQF2AJOAC++SkAcYQwlAW1dXBxnAcFdXF3eqAybnz59/6tQpAkwRQFAmAXh+hjBSRpg/h8PgPdlpFN8/JHFfvHgxJdNkJhA85QKM9+7dS0NoGiVcgjdmq7QcuCgcAIXweMyO23Qmh08JzJQCHM+eysTiCcaBSCCU8HivvH7tQ9/4RnN0oKIq0tbeGj7qnTVrBvgKtmEjz/G34Ktu4zfIrdCV80fYeyOLuHy5+qXzVXLxTTFo8FHzgeukWRI4PgBV/FLJ6rDo1gQezRowq8OYSPNT3NvlgHD/3HnzKyIVQb83hVqbAwExaDZzh1A41NLa1tnT39MX8wci3hzrvqGO053VlRWLFy5auHDRgvmL5s1b2DxjTihYgfKOPGarsXvlZx46/7go7LeVTEMODIJbd3bpzjdpMR8G8So40q1nz54N6hADYgFvoBRhoBRI4xFIrLImmEdidfqInKogCm6BsmAhyRAQwUIQlEi+MfKChVQHrCqbKZavTgmgLqoAAsFFaKMEagGeyU4twDMFAuR4daYcZFBygaP6xfINE0MuaiEG4ERGx3MWGfmJkywgnEgcQVOCitQ8ZUDhU2eioKVBKomLxXRlCMUq06Zh17BNulw5wDqp2duTcQTV0iEnUFtZ0dvVWTd7dsgf2H3wYCqVZt5ZW1ufCfqa5s7pP7kVVW0kGm3v6Dh9+gRjAr6RmZyD0DKTllNpxS1iGmmXf5mUoizfDt+mqov4iFx5V0YbzIgD+d2uIlqKVIywzaZbcSnFlcmkOAIhECCTF38XTY1Nc+bOZAtFMiHKOZaQBdgx4cJayh9sbWk9teMk+ud0NhjwN/qc8KIFi9//vl9bNGduAOA1ZtVqba0BIJ2tveYDd0VbI5fLP3tZDpw/B0qdOII9IJmiCP0eTAJ7+DxUvwrm0Qt10y3wQzwYBigiLxJwc4HQPIIoQIu5Ko6XyQhkIkeqSAoWkp54QJo7yUhAvSSmcDCViy+JklXoRHGtiE4ACsmu5ZMexEW8BqqJBBqhk5KBeZJpjUSSl3JIRl183tyBVe40kJ8kgDAViBXCdR5AOfykLRCmEj+sYBpB4WRUApTxNPz838AF5IRsuOTSADfgj4X/C+CozZrnAJAjFseCauBWIJ5z/uV7/1E1azYn6p1oad23/0AoFFlz7XV85yFPzNu9b8MLPwoEWBjCfikJKCFoUgL7XmX5kx4pMCleMbBh5g4YM3pwUZmiLF+QDhraexVT3c9K9NJpNhaJzw0u4rGNQhKeNXNGOBxtbJgdCUfTmQSHE1RWVktB2TRLuXy9LWc6Tp1uDwai2ETV1c4IhuoQdAOhaH//wLyZs3//tz+OHwwf/3w+xoFAQA5lMQQIxYNNRaHUYq39Oi6UA0PALaCi6ELn45MAz6hE0aXQHaVWF1MJkAzIBJsB4+J+6qYhPR2aFVY3o35s8iEaYFY41/LdpVPt9VoI6Qnox6mNJkbBppgqHkEGxGgarU7DVEQW7hSr3zPx/NTyuZf81Eca6dao1GobS5rg1njRAkxWLNxeNG5fRhXp7FEUqIi4bLhlL63z1s49G7btrJs1t7MvvvfAQY4EwJB33fr12fiZmlz70z/6V6av6fQAZlLgKu6RQVyQFqbJdhoDVQAYLhW5p5MAsy7oyjBiHuUvST9YY6SjEDpkPEBl2Nrrcxig0IHV1daQVlS+WTbLZh7/j+/de++vqdKL3Us9ff3HTrVmnUgs4TTOmFtf3zgwkPZ6whlkXl2LTWWbamv+5IHfwsoLu2fcUZn3qwODmIKan1yDUFYZY4G3wBz7d2wcGKRMls5lLi2jGJP0G+Cuj0jj9kgCXGCPi7WKu6Qk3gU/IFALJFIRjp9uIaqb1cIVQorLJ57y3bVSza7JFIZdfAWqNayfsdLAnXgK1Cy67EoTFC+1UdpwlzC3mW6TiSG7JiBMQEtzK9Is9m45MOU5wIpomt5OO3D/IIZIDAlrVq548ufPNcyaWVkRndU8q2nGzM6ujiNH9i+b3xjkoFsAlg8qm0FMFc/+oJpcRlg0nugICA6bC+zEA6SUXhhGdMzRp8Tn0+X/sGKb49S86uqq6uoaAgC5+k5mnMIBz4lTbV/96tc/+an/MxzCODnQ1xs7fbotnsymPJGaujnNNbPiyVxvDPiMBAIVWcyRPUIhM4K27v7/9a+P/d7HPxI2WEtt6LoZPYRUgXwXcfPvs6DCkmnIlH/FtgGXggPnWLuVb6NwNJAiWbHsqJ+Dfir5L8rMTOmyLiy54pfCp5uYxpJGJVT5LgvWSW5GTUAurbF4rVQLUXZRvlZBCcSortv9ZlyWEm8+IflOlDzCZCTSJUzDmoyn0MZds0CVhl16NJ7S3MCleH22TsuB8eeAuIty8P/gxWei2cvD55n82c+fjQQzx4/sm7VgJcs0qHMrq6Kceuf1Jfft2VVXX93d3eL1ZSORUDKewLyJ70KNpGQhlAIEuSGVb5BPJo9k7rfDt8Z3p3f9pvhIqQVBFkVxNFopX7csJJvzeQjj5iqLC4vohtc2/tsjT/zlg3/SUI8xR2L3rj39sYwTqg9W1sycMTuR9iXSETYQo8TmE/akU1h7iq9nBopQMO3zHmlt+Y+nnvnN978X1TR+HAuz9vxXX8xZg7XcCphrEXf8+930L3FYuFUQMn07h32TwhWrg/RIllSBQD2lwHxU0gWBLvCYu4q5RCo8I0pSFNmJ1zKJIRmKZRIQZlVVpWEVQClKM2rJbpm6YExGElM4F2VCDPGENZ4YRWstGQp5RL1koTRFZS1WiSGBlk8hFEVihXYlAEp0HkCAXJpSPkSvV5d13TLJOP17im3h5cIBnB6zWSCAeZM4NPTkujpbv/fot2IZPjRfMpZLxrpqKmpPYf9fXzWjJrT1rV/MrvbNnzens8p/pu1Uf18/Xp/iA31+H8aG7PYRUym+FHBKDsLNpPimsFjmLp4rzLppgO/QQB1jQjQSrayoDIXE5h+7aBKgIxN9tgAdRshGVMZMORdkRvDYoz946cXNn/3cp2bOnnPs+JG2tlaE3araunD1LNTIA2l/1uv3OmEBe4YLEVt97NOVcwyYI6RTMqsIhjZu2bp04bybrl6VMVgOkSo9ixJchdiCss+8/0FRl0uPsO0cJw4MWrsFUXSnLN8C4AR6AT8KOQpv3PkqFMAUgInhW9IwoEWAjFyEFZL5OlRMtJg0Tq+stBh9WcRiOcWaljtPKk1nf1sOjIoDTB7z00e8B2/e8sbPn386Gs7hETGJ30R/1UC6ctGy1WmJSO946+W6Ck+QJ74UwqMs1+YyqGpj/czIEVgFHjFqSiRTqJv9ZgMsJNTU1XGXWkQAFrnVwBj/gFLBOLNzN4nFE6Avmi+q8vjwBVURrUjG0z5PmHME/vGhr2RyyT/78z8709F+6MjJUKguGq2vq29K4s0iGIlh6SHHGjiVlTULFiyIhIMnT544fPhQVWUFxwuxpUjOUjC+rXAtFe/t/L8+86cNIbNviYgMcq94zMhzS5IVzvUdFQNtIsuBoTkwCG5JAtyiw1GAlDlpwWsESMwUVOMZ31UWVATlzhBPpKbnp0qr/CRe4ZZyNM3QVNjYC+CAhdsLYJ7NWsoBg3+5VDoW8jvPPPvEzj1bHT9GRnKsXgwA9VdkfDVOsGrBkmWb39xQ7U9VBlnoRaWMzTEnARhPFIAYVsRejrzlTFxOMhBUYwE4IGcMiOtFNrUaqFO4FQIUcXMZY6jMOk4adRQqK7TYKdn8Y+AWT1fG8VNFe1vv3/3dQ4uXLvvEA7+zc++eYydPzV+0orJqViBYDX3JNKu2HvbqNs1igblZXFVkRRMGtCeS8R3bt2XYMU8tOdl24fEHiIf2uU0ND/zmB4Ny8iAepmSaYJDXyLJGKW7ORSrwSkXcUs7Z35YD5+BAqXTLDhngVvqYWbykmyrQuvpY0JR4FXZ5RDKVd8nCTzBVVawk4KeWoEXpo3OQYx+PnQMWbsfOM5tjWA4I1uaSnMH+2GOPnDxxKBR10llO28wIYLKUw+Yd1LMep62zq6qSPXz4iErg7om5eMrofhFJ2cmKPtr4uJBxJCUa6WwwyGINcmMS/XLO+CIugNdZ7CKzrOvKEIJ0KYInWWT0yJrtBqI6i7a3xT//V//4K3fe+it33rlx89uVNQ1Nsxb7wxVJis4Aq1EE1wWLlzU0zkA7x6IP1eEtWYyzfLhTToWCgZ1btwx094T9eKRKoz5mZRnddLKv+49/+7eWzJ0pxwwC+0I4sJuHW8MsE1aiLdwajthrrBwYZH0nU8uzFvD5oohUyZV+T/clgSajswK0irXE6E/SkFgvo1QWWyQVf8tLHiutNr3lgOXAxHMg63hzj//n91pajuNqmMm16F0xmQLJUuhn/elYHDlxVkNjFCgORHO+SKiifvuug319zLajuWzQ42VvayWCIoumLJTi8h+4xfUEIAtgFtEP4uZB1wiSjBPiN0rMmz052VfLuXtUKM4qPOyvDQarDx449fnP/eNN77p50dIVew4cvnLV9bPmLgtG6tK5YNYJ48+5cc6ca2+6qWHmnKwTTKTxaxX0OYFMju3AngT7iNBI57yrr7kuGI7iboPRiepQcVNxRWXVS794RSVY1NcQSaQi7MQz3NZwuXCgdCOQdPmCFS5QCohiv4CQKhNP8VcutkWkUcRV/TATTxIQ1sSKuG4yFYWlZ9vLcsByYApwIHey5cjOnVvqqrD1FTmvq6O3NxavrqlbOG/h3DnzvbgX7o//5LnngTHse+vqa9s6+2oaF3794UcWL1hw56++p7GhNpWKYdfshBwMrDJYXLEzCDk1k5T9N2kWVdEwo81VtDWqWr3hyykYwn2iLLwijfoEsM1Ze95goOKtjXu+9fD3rrr2mhtuXF9VU4O3ijQuoTzeRDIRz+Sq65uuXbWKVV8xqJZdvyEWtZB4AXuRqgF+oN6cD4jueOnyK7Zv3oQUG44woKUwP2F827V3b1d/rDYSAvhxHck4mDeVAu6NItnKtFOg805uEgcpkwFONZUCMiEb5c3x48fZOY6nC9w84ZWJbwD0JQ1PsdHHcTG+3OipMhM0q7OIv/hdwiciYVkaKVyqlLYC7kR0BvivsxlrKjUR7L38ysRIqXfDhl8kYrH5c+c1NTUDtD4/DmrQ7+IjApAMPvWzF159Y1MwWumEAgmMlbPJgOMN+p3DB/f/4PHH5syecest61asWOT4QeRUIhXDqBgtbhYfbQl0wmiVBb1kyJBhxgwdZgAxE31Q1sdiFf4rkGvTyRQuqAL+8C9eefPR7z5zzfXr7/vQB9HzYnuFY2bWdBGEsXpavHxFbWNzLJ3FCIrzflI4vsggGyBZ+1gGBlA5ZY9iWTfG7WMmkUBmP330cBv+JgPYSMt6csDnzcR6f+1Xf+X2G28QuDVv/ex6bWHd1hXGL79eYVs8DhxwHnzwQbcYxUu2uRGjVlE7d+5ETsVH4yuvvIJrYrwb7tq1C0xlZOd66qmnQF/cH7711lt483/zzTd5tGXLFiJBaJWAuSseKISPA8m2iMEcUF09cViDMzeyfLYd5AI5gHnwwvnLliy+qq5+djhcx8osxk2yrOoJIFCe7on987cfv+KatZHaBnb+Zby+vl6WSMMDqVxNw8yb1t0S8Ee+993Hnn3yGVw7gVwNtfUhfyjHFgfAEKcZKG892HwY2VH0xOpFQ4AXgJSF0wznIsjiruP1RyPVmZT/2adf/s8f/Gzt+lt/7QP3OUH2DWbp6pyUEg2EG2pqV61YcabldOupEyHMqEKVbMlFupVtijiRJKnZZYu4rP6W5QQhdgTlcpXRSFtLiwjC2F/hoZn9xblcx5m29Wuvd8xGY+hhEfmsSGtk27yAa+XcC+xhl2v2offdqsAKajKUsy9248aNYOq3v/1thvIbb7xx//79zz333Oc+9zngWY8rwL8/h/FxHBBS7I9//GOgl0fkddXLGrYq5cu1m9l2TyEO8JUHs+kMBwWAerKcKpgk1k1s/iH0xM9eXHfH3U4wgjqrytuMx0SMqdpaWnv6+06fOhkNhZdcdd2n/mz5tnc2PvvE45s2bVlz9ZWrVl5RXVPZOKOxur5uIN6HhMyJeV7WiGUHrXFcIf9QM7PYGo0letPx7OmTp2P9Cb8v9Prrm7dt3vOeu973njvuwmbq+JGjHENyzXXXL1qwkDJARI63XzhvFmcDnTjdmorH0fWkZb+vGDvxSJRu+ZUsAU/RumXSyLKhaNSPT1nxCoCO2YPqju24LW3t7d19M2rwqoFaepBdixJppghT6FVaUicXB0otk4FPpFh1+wCliK1IqytXruSOjIvdMt8eZ+2hMQaMOYoOKZYAKYl85513SHno0CHcIz/wwAPIx8Tz7XJp2MLt+L58ZjMuS5khcRIDRxSMbxW2tMuRA8iCPrBKhDgB3CwSrJgmpzy+XUdObtxz0F9Vl+NgPiAZd4/JFLCM0IqLf9S2eHZsbz3d1Xa6OuxP9HT8/Jkn9+3ZftWVy9fdvK5pZjP2w7HkgC+Q6ew4U1dRXRGKsoTLFv0zHR0st8aSib6BATxEVkQq/TknEox879+/t3ffoTve94Gb333bmdOnZs1ouuVd6+tra83uCa/xgsECcLZ/oC/WPxBkrdgTyngDB1pbBgD0cCjLiYHiv1kcZWB1xZVMYeyJ3JwLOt4De/Z0tbbi84ImhkKBdCqeTQzcd8/d169eFRIIlvYLCwy+ihRs5hzyx0q3l+NXMQ5tHgS3DNngKEfrgKm6h4cYDKa4czExFHN/49SJAL6luAOlDPoQQoB49XehMWC26pMpQU2aKWQcSLZFFHHAwq3tDuPPAT5TET8pGLsiJs0i3oJbCJ+PPvOip64x4cVWGf9xHKfjYYU0k5JTgDhuT3xIBfCxnIv393a1nmo5dLAuGjq0f/fTP/lxW+upZVdecfPNN8+a0xwIy3nwmXgqmyJrJhQKB6MVVAMYB4Khb33rkQVzFzTVNr748xe6W9s//rv/dfGKFdFoZN0N1y5dOJ+jCRCKwTzxd8VcwOdJpTnRT3YLtZ5s7e3o9QXDA17v8Y6Olt6+yoambrwny8m1rARnzejEGJTBdopV2+729oO794ivKVAU6j1pXza9qLnpE//loxh2ing8GG5llBt/XtsSLyMODFImA6hcgKXscDNrriAod2JUQkV+Ut6oKTIgKl3QuLMgJVmQawnzVM+54ynZzeFWYuTMo8uItRPf1JLpC69g4uu0NUx/DhjVrlxoX8VAV0Q9ljM9nfFUd38sWsXSqB+YxOiJPUJY/4rkh5wpAwG2xB6OlXYilU0Llsybv7CvvS1aXds0a/buXdueevQ7hw8cSifi625ay8JTPJ586eVfvvfeD1x59eoYgiqepHBSkcitf/cdjz/6mKerd9YVK/+P3/vDqmiUDb7vu/tXF8+fzXIsbiDz23aZ3Pscwdosp+7ircKZN29OqjFx4NBhtio110aD4UBLbxdmVqlcBrNkcTLFFlvmAriTZDU3l6upr0cmNxt8KTZrzKk8+8nO1uI81ho2iPjrAm2BMdO/F9gWjj8HBkm3wCTntOsBfCrOclfplpqRVvmg+KnDOncFZnKJYULhIC1XMnYTkBHDZu4Wbsf3BcLzYunWnnc7vuy9bEsDWfnniMyHSJvC0xKYk/T4X3x7+5lYptt4ScTVDagV9CMcIv+mQTKcLCdi8WgkIiePpBNBxxfv7Q55clHOimeYySaPHj28d++el196affbmz34cwyG5yxe8sGP/IYTCOWMWIwyGY0vmJdOZZrqG+pr6hpr6wa6Ou+69cZZTXWAnpG3kTtFOQxMooPDU0DKrL+yvVeO6ANQA4Ft27fjxDEXiuw/cToXrY7n8DDpDYQiOJOUIcgALArksN+/7a3NVJbFk3OOdRlx2ZGLD/zBf/3tBc2NWG259shFPUGnInm597LtIbbh58eBQdKtSrQUBKwSBi/FLYs5FQB5l0hXV6zeLYp9XKhVlAqy9GlFApWVVd61WHt+b2iEXK44a+XaEbhkH42JAyK+iQkTeimDs4q65jie1o6OTIgdBwFEWYYDNXaSvbloa3M+9r+ywcbT11np84S82apwqHJeI6VwHE8sFu/pT89snjVr8eL3fvQ3Eqlce1c3qjMsgnt7+1DcxuJJPD7W11QHwkCvt7GulvOx/ckUB/pct/KqOU31+IkkMSjrdwLiBkMEb5wwMy3IIGOjhkM+RTwVir25pcsW79i1J5tKzqqvP9zW4a+sRrGWzDBh8KUzOXxg0SzJks1V1VSfOX1axFrxkCzHBoXDoeMnTs5vbnSZlpdnTZ1mB5NVKY+pQ9nEZzlQ6uZCNcPgq66/Mo5jmYxsqsIu+ZBldacQYSL5qeKvoilmU5TApTWQgAuQ5idFufH2DYwLBzheXhk7LqXZQiwHlAMGWeSDNcBkNMVebzLr6ejqrZ5VGwqG+uMsD8mpPrh+qqjgML4kx25VB/2hQK4pXMH6akN1NCQHAslwwhlBLa1nouFwcyhwvOPMiZOno7UzglX1bAtifw6uqcLIyklQM4QWNykrwJ5YKiP7fFmiSiWvvmJ+Np0KcaSY7JpF5hRyCoKBFzmY8ceoiI25s1lPYchqbp7RdqarmqMJsPmCfIRa2YBkvDniW4qT+MzCVkND/YmjRwIVOMOSrAjJqXT8dGtLUU/ID2USo3wp/LG9xXJgrBwYBLeyTc2s1Cq48r25ukq+G5CVn26M/pRPwhxRwF0BlTslqM6ZeC7VOVusHeu7GU16GRPtZTkwfhwQgM3jSn4FF8tePvHW1s5QtBKDpmw6gQ9jOS4gyPm2TjoV82YTVX5P78mTa2+8YfHsxqCPhac45h+gGltpg/X1tfX1/bE4q6rz6+pqIpUHTnWH6htxquj4gzhTxJgp6PF70FHnsri0iKUTiKnYYnW3n7ln3XoCrLCCsewGlm1JHnRsCKmYR1E+WBsGKAkg2vIp4KUdXTNGyA1NjR3t3Zl0ugH5Nc7hRLi9QMz2icspEdhFF02wqqqSo/+MgYrsA5ZxzOs9ceqUa2MCJwrMyLNYv7ciEB4/1tuSpjsHBtkuqYWU4ih4CUACrgqTIrEWjrbVIb4YieEST+msBLirvEsMnZgYlW41PN35adtnOTDlOQAiCegaHZVBFx8wd6ato6a2nvN22LxqHnHwFxIv/6UqfJmDW996723rl81rxI0TJwSZ5VoMqkI8T6eS4C47bVYsW8LmoSrH3xiNeAb6mb+bs3qwckLuNCiPeppTAwDWDAiaQsdbX1uVTnpYUWUFmf295p8nmUhQP5o1HVioKBQUD42MMFhvSY0ZDI85OjdCVBIPz8YAhYVbMFtWo72MSJxOJJbVKKKj0TB+pcQiTJrs47zdlrYzBmWl6RI56H2K1djgmCn/um0DLhoHSk2FXbnWTPfyhlQAsHxz5qgOlzIXPrGBciNdiFVIVgBWwVfDF61h074iXoq+I22pvh07p5n27/0iNFA3ECAD8rUjKwIwnGOLITFCos8JosoN+SuyqVxIJMss66cHt7zzux+6f1Z9NSpl2XTDHJ21XZ7IgqiMMBh+YP0bDDhXXnEVDpEXzqhJdbcEcskgoJxl84/DgmoGkCW9eLACgHGujIydY0s/Pio4+49/xkMUCmjAlW2xHK2LgQjuF9mDJK4b2VMki7LsEIZGEmYyDfW1iK3sVxQVdCoXdoLstWBfE6Zd2FhxHLfP7wzEBhobG7DsojY5qjedicXTybQsVBvfHjLcnf0jMwKTsASCL8IrsVVMCw6Uwu2QjVLc3bx5M06SGeUVdEXxkstt375df37/+9/n5+OPP66wqrKvLgCToBinh6zCRo7AAQVRVfK/+OKLn/zkJ9kebacvI3DMProQDqh0K9KdcSlFUdx6+/pl/wxLnPxhcxC+KlJpEBTvE3ffduusuhrxhIH5EXkASqyLkYMlpUcsmMBP3D3KFgb/7Jkz0/GBOTMa+rs7POkkG3FwziynAOEs2S8un8gtDo49HEIkuC3KX8BYjsIVz8oUyjTTHYJE/SaXBUeFAAAgAElEQVTx7K0VwVcEWURXP+ZUWBpj5uxjnwWqZjnuwIxi5qQUoVAaR8n+QGU1p+TiBANJwsi+7Bfy+Ppj4sFDLtUdKzetVHshvcrmZd45GiYosqKQwWaKTrthw4aWlhaE2hUrVijcXnHFFadOnXrttdeOHTuGVyl8OpKMTbrXXnstHh+PHDny0Y9+VI/RHU11Nk05Bxj11Cz8uuuu+8IXvtDU1FSsVChPb2MsB86fA7KJVibioj4RFONMH09/rC9bWScCHjCF4At4YYMUj4d8nqtXLhFRlGVTgBFhEzUv0Bl20Axz1jt6XsFI1lmdUDbjmTW7qa29ozFauXHf/oqGJoTFABKp6JzTQCauoqRCDhUQw5EA6I1gDIo6LOF6PYAxAAk9b7z5RnVF5ZUrrpTZAMQYY0wwG8+LOEqGcAmw+z+VjFZU9nCaX0Etx4Yj2UMsTWApFxk5WF1TrzZdUo8xQ2EPMA7h6yK1589Am9NyYCgOjEq6JSNfl47vdEeOCULMve+++/DauHDhQrCWOSb71m+66SbCgOt73/tedDjuui/xGDOrRnooGmzcOTigimKkW94CPr+eeOIJAux1Pkc2+9hy4EI5IFZT+s8sJdET9SRN2UWD8NnX2b7mqitZrsVIw0wHJTGpRE7k8maDYXopWOdD5gSdyU3K+oY6gUldLpVT9BCAgVfx62TcG5MQfxQOe4QoLcPJBl7QOoFFFAW1dbQtXbHsXe9691Urr1519Wq2UFC47AdKgcROPB7jhF3+UR/HggLDR44fR3dMoTJ8iYJYFsgMkQ6wmmE6EQj5A0GN1GVZwsDthXLO5rccKOPAaOGWLgiU4jkZyZXAvffeu2fPnttuu23NmjU7duyg2HXr1vEtgqy33HILBxjcc889HGaAj+W1a9fOmzdPPlN75G0Z90cZYcYHWTtH2iCs+7IY/EaZ3SazHBgTB0BWVaJiFIVMSedz/B60U3I6HjDFrhtZ3gBSs+n+3lXL57OyizCM6Mm5eKarovtNy4G2DiCXkJ+kRAXMM0rzeiprKpKpWA2HhiFMsjkHN4tIw350woKsQKGDjZUT6uztExticddI78c3JEkCa65ec2j/IQAyEArt2LXrk5/8lKykorKWRWMPPiDl8B+pJtcbi4UqKg8ePQYdEEYV8sEYK2QjPoifLCy/2O/LXiYRBsBtRz4xUuExxvy1l+XAeHJgVMpkKqQ7IqHecccdokQyn5Q73K9evZqf8+fP567n7t15553MJZF3uYikB3OBFuNJ+OVUlrIathdbg+tbuJzYYNt6cTjA1y3SqbFAJoSAi9WuL1oR9vTnCcAqWMyS0pnqSCgCiAFNuisBtTCLsACnbKiRQQNNsuQBumQ/jy+eSIY4+dZsgcAFI/+QePnNBkQWbFmVpTDHGwBvU+lkVV3D8dPtS2aKKZMe1XfwwAFOCopEo5SOcTEEfP0b/+tr//R1OVgIbxvEmjVYgHMgkWzv7t2weduKVVcncOwcDidSacRo2UJsmkcaLgRfdiJVVFV2d7YxG5DBTU6zl3O7Lw6vbS2XFQdGBYGM7Gpz7yqEdQ5YPOKDrzxVP1P0Wj28T5PRfS3WXkivctmohcBnOG/h9kJYavOegwOqOlHzISPqYnYkRwPJbJtD4zEpEhl4Rm0NC6FAbTKVoJdGQmHdJyM6Z2TVVEp+CrSZzUMyLHDeCRCXC7AYwgHy0pPZjYP3CRzmsMLLIq7sjk1lMHz2NDTN3LZ1TzqFMyjkZ1wjZxcvWUp5yRRbIRBSMWT23v/hDyaxTwblxYkFRIl7AFae9x06gjvHMz39bCBCbkW2ZgMwuYysDuJCrKimzbjkRZAw7cp/U0xq8Y5nlUfn6CH28dg5MCq4pS/SPemMrnRFwEVc7aYsJepTvRNJLnqzooJduB37qzmbQ1mtb8EMfBiC2BnMhXDU5h0VB4xiWBXA4CEipsis4qRJUFRculZWREST7AHMWDIVbS1elBEQv/LlL3MoX3V1zV133YVXKbMN12h4QVQfW3pwWpepqq4R5bPXk8C4ic07Ik4DxpwwxqYehF0nkcudaO9s7ZbD9LhE6M7lfvrMMyzTxvsH2H37O7/7u//yr49wjlBKvEo6JMOvBVTtP3K0L5XZsnvvkqtWZXxyOAGFU6VpDRbQ3MSIGnogjK8pAPSbkcp4lpJpgbGTyDfe/LGX5cA4cGCQMhlQpPPR7VROVW8VWA0ooKqpjnRGMxPUO92Uj4dc/IQcBVfggU5PPDIud+KJMRPJS3NBleIT7cLBG3csuZjSqj0Xj4jRR0qztlRnGFBM0zSNtt1tjibg7s5CNLHbSOXGxLVZTxrW8vWN6Kih72Li6rUlT3MOmMUixVqESD5cYLKxoWFfx+kcVsbGcU0CEyY27eALB9kRMyW2BAlTyOR9+OGH/+RPPrVg4SI+jeeff/Gv/uqv/v7v/16Wg+VMMOTiXCwd56y7XMAfDFUMYMBkjIFZHwbHMTwWKyyxcvay/Fu7cMF3nnzqDz/+YU76BM75MO++865UIrlt+9bV11wDJFNfSqRVAuTLAp9Hjp5o7ew91t4Ry/kqopWJNAu06WAwJHuUjJjOaGTWpuU8X9aU8YkhkrUMWeL4gm+HMAcNua9Y8whH3CgbsBw4Lw7kF2LdvOznqa2tZdTWwwkUSFAUq1NG6YipFIilWKswRiSXAhLfIY90u62iNTBGpMIA4fMi8kIzQScNgUgIgBLIA2vV0FqJVOJJxiONoUp+IrKTRTGY7Pop0hxwGnslRVOekv1CSTzf/PoiNDc7rxr///bOPNiyqzrvd773Df2mfj2oB3W31CAkJBAIi4hBQAkiO05hcGGXUSquVJS4KJdjV2L/ERsqQKWoSpUpCAlgUQT+CTGDwRYKaAAkpIBQQ2ueQOpBrZ7n7tdvuPN9+a297jt93+3T6tvSea+n7+jp9Dn77LOH7+59vr3WXnvtcXOtLrp9tXDqvYCAGWeYzRIM02yyi4558N91dOqHjzybHRrDBio4YcqUWrWrRkrvvO4qWwqLEyjT1kJJ6aVLlxb7+ukm9CZ60M4dL7FpT9DiMq3LUp/0b7ZuP1ZtbN6yY3D5GnaDh2kbrQYzuUiXpnZOpSrVMkRewu1yo1FqNbY/tfk//Pt/28eWQ5BkjcW+CAks1MXRcsPW82ZIweaJC9nc/r0HXt6z71C1vmX3vhXrN1TosvlSw+jbOi+Tw8a4wYmFFxVPlOivGzMTzz/9pK/rZU65WZ5595uv/v3feb9VZo6ivWW0xyAiXnWUV4VAt6mUMwrUQmqwiFNpxJcQzMDAAExMSOiVZuZnDb1QYLbDKc0DfUu+iOecg88VLVFISJEy+CcAodD5kjJTQh8EEAGi9XpRNerCxwJKpswu8fuIgTheU6dhbjtF21f1E7z6l5zvX/37elMIxCIQyMiMpQKvGLdms6PDQ+xQx7Z6VVbm8HEwsTZzaOIEhkglhFJbHtump9Vr1x4+epQuBBUePnL43/3Jn7AyJwiWwQIrlZmaOLF1997RFavZDMg2iZ9tINKy44F9NIiCrIoPDWaIceSIr6hc9nU33Pilb3zrd2+55Q2Xr7CkLB+od7YPF1fsDNioIydPz1S27N7Ld+vYTOV4rTG6ctUMM8R9/TWTwpvM6mJvRRcORbTpZGfcsHApFRmaBNNrOyp8GUJ9dAiBBBGIoVvnyEicpS06LbnGmKedVOryIg3U40NXROAgxMU+qM7pihBn8QRL32NSlMrLScEoA2dCoFLnXa8OIRTYy2/9Lew86FXmFur1CFEI6RDCrUvJlIRoPZYnqWiLn2NSJVc65zUC3pJDcw7Gw6aUKrJtAI4mapW0eXtifx7ky9ax6Znj5cYY+/XY+NzmZeHhL3/5S+9+983Oaze/9z1f+cod9kEw/xhmwrxn/77i0OjOfU+uGVuJq+O+Uu7A7j0Hd758aP8+FvST5tDoyMrLVl11zTXjy1fONFoVFuuUcuve+OYntu74xebHN65d/aarr0o1oVgGwrbxbaVaP3p83+Gjxw8cPsJ6oln0xsW+4sCS8nSFSWASpGTBtjksqLAhhFWM/8OtsTtfAL+2DhXqzhfPPGGc2qGj18K7OoTAWSEwj26hECdOzs5PhEQTnC7sEu7tljbqhArfODNZGw0kxLnzgqeUyTn4rAqXVOSIa7lwedTL7MIrVEoJnYMdAargQq1XGTS4IDLhoME16XiVo2omVVSlIwTOCwTmmIbGjyRpBkbp1OqVK3YeN9cTVWaX6COofwt9m595/pYb34SZMAtjg/TYuukd/+zw0cMv7XiZnnL9m95UrVWK6JkRKTPpmWrj4GT5p48+fuW1b4ECT+ze+dkvfP6lF15YumQJ4jSvm/CamkUkPXzsxC2/+8E//tM/m25mJ8tsdpvLl/pzy4sHZzNfu+ueVcuWnTh2bGpqElJctvIypn4rjeb4suXVGh6Yi+x0MDU1nSv0MyYIVoWoj80Xlhl6mTyLutqWA3HwvcNEisTp/mHJkx3UmM4eFOpxP0VsYFxEhQmBLgS66daJBx4lXsQ6kArhcIyzkUt4xHHZzlUxkTKZFwl30nWeIySitHPyA3ilOJM73crJkmv7lISBhROqjxKIRgdlahYB14Vaj8nwwtmaWyJEleKtrkqRmoe0x9PnpM7KVAgkhoCzVKofUXRiigkYujfCLfbAxULfkenyE7/e8VvXrDcaRj+E0WRqdmjJ4Fuvv578sXxgnS1djZW1cO2Wl3buPHR0cNnKTKnvhc2PPPCDuz73qU/810/+l8MHDkLJ6H1tY5/UbH82O3zZ+CM/ufu6N11z/dv/mflPM4+Qs/VUY6bRXPv61zfrzaH+oQGbkbUtCSDTgUy6jBYKC2iMM8KcLr4k8X1h5lBmsWFdHFeUwcKTcrFsyEyh7c++AdadkZU5u1QQ5p4Sg08JCQFHYB7dOotAKrQ5WAeyYQNzzqtWrcI1I0/xYgEP0RZxMYPn5KNHj+I9igguGtowMsyPOsvu2LEDNxdOcs5hxDwnuHuNyJrieRm2b9/+ute9jvC9e/du2LDBOlywDvMzVcNrB+FEprJeZeK4FRWBe/bsIYIPPnzeurNei8ayFOmc4KlML3oE5mQ7qKkt5UFNy5eOb9t/2AjJZF1bCMvOt/lsYeuuvVDV1RvXDbBrZ6rBeJZAuo59EEyNPFuulXfuPXDkxMyBo5NTjdbg2PDMzOQ3vv7V32z+xa3vv+XQgT2FfAmL5VJfP5Om6XxY4NtsDmTqtf1bm3uHKjNTjIhn88XS8Hj/+IqJmeOzub5WGh/MfWi0S8VSo1J211W5PMWs+6YIrESqlKtFjCsoE+ooPDXSXXAsaYuArY9SMeg6hHBrixeCQNFCtRWG4Bf9j6wKLjYC80xqnSfgSxvwBXZhg4G/+7u/IwRahZmwW2ZPguPHjxPz4Ycfxl/j5z//+cOHD0NUhw4devTRR3nERgX4bvzMZz6DX2Vqc//99xOZWZnHH3/ck138M12IulAYrxTi+Mc+9jFGEvfcc89PfvIThgUUD//PMCu1oILr1q2jtHispDoTExP79+/HY+W2bdsYXnzpS19iDwboFjS4oKabN2+OrZEPPmIfJRW42I1F+V0aCNgkq/k05MBYH+WNTXdCqMMDJbbxQVqFaG3ilFU7pVK21JceGNy2/9DDTzy968jxKUbU2RJv45URgXGyXPv19p1PvbD9wGR578TUDIqhYjEzW8f898TBfT+7//5Nv/j54OAAhJcr5Fk1a5O/LN7NY5VVP3Zwz+vXjBdrE6PZ2mBzsr8+ObN/+87nHu1PV4u5WbbtQ6eNc6lyla30WChkY/0wFHCvzmmW5xbRSLHzQSZTKhZxJxm4v32YiGt76bXMTSSCrn0byBkSRs9smmerfPjzwy+i27lg/SsEzgKB7Kc+9akoOu1yagprQTPVc9GNjd4goR//+Me33nori2dYasIyXPaAe9e73sV+fDfddNOmTZtefPFFRL2HHnoIsW/NmjUQGJtesViI+Q9I6+abb/7ud7/72GOPoW2++uqrO4tGAz+Lkr6GqMjWzricuSZfzr/61a+4WL16NYHf+ta32GkHKD760Y8ypEB2h3F/8IMfILlCwxDqhz70Idj3zjvvZCseoOBdCBjHqkjJrJu69957cQ1t4+IwCURJuXBle1LMGpsOOUakTr6udVg0VF/DD6JXz2sETHS1PX+CES/sFfSvMFUxn3rxpe2pwkAD3a4RG+t0gp8KW5ybnSpXd+zet3PvwUPHJ06cmMA4+dfbdx0rN3bsP3qs1to3Va3nio0s4m9zYLa8ZLbampj4q//0lxuuuCKTyxs90ynRTuey9Vq5PHNi+9Yd/+O//7cPf/B3x8dGVq5cOcAeJ41qLtXKtarHDh8YGh1j+RBelOkBmE1TGNbzmGI5xaIgW9trauJwwbCAp6iXbWY5rDIyzTh/adtgF79WGEX3F4rbtmwp9bG+0Qy6sphJp1PvuPEGfiQXRyKuDdZe5kWr41ikj9h53WJUuN4QmKdMdqqIzOKRCGFf/CQ//fTTBCLC8imHXWhwJA7LQj9vfvOboeQHH3wQZlqxYsV9993Hqju++88888yVV14Jv0JacLArk3nLs3BK8OveyvmaYjknuSWXJ0TW7KbABoJ33303quPly5czMrjmmmugTyJTHXYYvP322++4446xsTG4k7ceeOABKgImiL+8zrADQPgQoDCHkp1ryQKgiOxrpRatgq8JHb0sBLoQcAZxknF2CrO30NVgqTDFgJIPAPZHNvtpQ1coGUGzkIOwBrF32L7/2O5UdbC/NDlTqxw4tmR4vMb0lO0INJtqzgyWUssK6aXFof/8H/904+oV37nzzu0vvVjEjeJsqj+Xn5w4NrCk/9ZbP/Cv/9dtV16xbmrqOMtiSX986eiy8dF9+/a8vHtnsdS/Z+uza666AXePrTTMaBsQtfs1/GhEawFugTwnj1qVbL/cMG7wx+HG3pueLrMTX7lSZVlf2F9wlurw5CSRUvDgbNn2zTWy5eEcOmo8QqBnBLrdXKA4RbZz4Qy2gEQRUpFW4Q9unXSZy3RzZUiUp8Sh08FSbrvrlkeEIOy6XprCwEYc0dztIktgLgU6+VFaCs/qYQpDMXzm1avp1XFydQQ48y4vupEUZ5+Kpka8HiZ7bI2Ez+kyyPB0eMWHF/6059/irCNSsKg8ZIq0zYjnrFPRC0JgPgJtppkjHP6FXp1hHn7quZcmmuV0ATNjVtUh+tIC2R2A+SfbbQCRt+1uDtMoE3zZ3SeDf0UE0Fq1lK4O56ZXjZUG2SOXZfpsxdPXT//Zf/DQwYOH7EuSz42PL0WBRL9jKz121UtlU6YlSuO0CieNeMFo7tyz8+UDhydni9nh1bmx9bU0imjTHjM/y4mCcEY/bFOygRCt2IFfjSyDLplrnoVAM5TCdcaSQvGhB+4v9pnkPVuv9uezmVr143/15wyc24rpdkoAQSGodSTeWg3VfIRAjwjMk255Bwqh/9DEnaL8DD/BTFwjvRGHzzoEQxwObgnkLeiHF4lDTOshwQyYFzkTEh2dxVo00qVUFBhyopC+kscLRiG9ai64E83r6I4e3cDKC8mLvM4RRXBAvLIeh9T4ZHB2AMGkx98gwWiUcNFQTbDYSup8Q8CoKPCIs6wXj+vly5ZvObQj11c0o8cwyEZiZEkQcekvNXafRdrN46Y4zR4DRrP4l2iEKdImG9FX1o4Uc/VJDIpL+XytUp6eqmJCvHSkb9nYetLz70m9NoU7Dbb4YZCesc1r2SOXLRBqRTYaarUuX3f5zgMHB/LZ45MTg2NOmYE62U8vaL9RJgchdo4GnQ1tWjdEtj97HmySM4GqzVUyNTCNuMVCKmhVJifovbb01iRah4GIrqE+B/3a8df5QkdgXtNxgoFRkF+dNlx+IoRHnPmUO+tw68TMhYuAHocOQzjRQj80Yz8EPjDigqMTrMVkBcrgxY6K4bTUWWaYknEDrOwSagQFNXIQeJdAry8hfs0ZoLiNIKKOXHPm0UI3DvL1LKKLhc5R6V8aCDjJtqm2TViBq/CcTMuGXfkQ0CPoxbTzer3GH1yUK5ZS+RxLVtmsp1DsrzdIwYyYU63KYKG5ZtlAPtVAX4t3C1u5WyzY9CtfBcyiahUkRnS5wc4J1XODnQ/IxTJgoI/UyX66QZqGu/OFfmZtyzPkk2drArIIP4rFwg+Hibkm2JJru/xOrj4XHQKdiTFIDvO+vJ5meNAsoJZu1fIkNoufSPMNHTpyOxG7mOtul0YbUC2TR2AeBcIcTkiYRDmLINW5xEajd/0qFzyyPhBIxcVc3nKFKuHwE9dcEEhM19nCB6STfPF7S5HqOGsSnSK5upjiOelSVA/3AQGfD8IptlfQqZrXXcB19biTK9WMtM2OCel4NG5Jxz4VC3l47cW1vbUCxeoRgTbXdtKLK2ZhnCXFTH8pj14XGRGqNJGxNWs7vzv1mgMq09MycQQBFwul0FMaxXw615waKrQwTUIKNd40yyj72DASx/UTMi6+GKs1cwRrXSxju+wFp1Hm5RhSxlSKrwl6YtRM5XINSbbUNxCI1uiaP5NszY3FnFA7r65hwGA8Gx0nI2IwlW6UZ6uT+dlqIVXPpRoFtk9oVlrNGiODoDJn3taqFTIJSekQAq8KgRhTKXoIjZ7UnIeGh4fRtaJf9UCnqCgv2MUpx2mFdzkIceEvEiuj1DovXlWBX81LTDlj2eTl9EEDZwytvS6cOYhDFTyEKvAh4OyVoi5EjjL2OJFc67ZRxHQoomieyKspbs/vsJaJwvQcXRGFwJkRmJPmwjynHfMIhpulw0v2T7JCHckyxeY9jKuRVhtsuwMn8d1A94qw2KrzLz0CcZWJ0kajOj5UyNSn8hm+DOYhI1/INarsW4CVUw4ZOJu3pRDZTKFirlULcHhpYMDsleiHrEikY+LEuNli5dH2rVsh9xPTlfG163G4AeHD/PyXmTWPFkH72825VgHvJe2+EsyWbSqXOuKuuZZrTK8a7WPVBR6hsczCOhoGTjWrJl+bxtwTbL8VPouRyHtmPBVDCEQIzKNb51dr92EaMjR1a5fcOtda/wkTtDxyvnEO49bJxsarQWnsrzAz6jvnEOis1gW9p7/QnEFhUBRTVHKP6uWs2XmOCNKrEA0g/NZLHsV3QAj0KnTVy6N1BepWCFwgCBid8L8R2dwR2MaMk0cG+/cfm4Bjw57wTeTaarWGHEj/wsDBOhH2U1AUhk5QGo4eU/kU/jAa1UwBcoW92GoP3RjD9DxiLbZU+WK+Uq3lsjm8HM9MT+VQR9eqeLAiFaZqkJJt8N6oT5drR44eb7TS1Va+MotKeol7NbZZWFu4ZJJ2uG6X2aZyw3wtdQkVcesoQgKJGjM3WfNTbJVT5ePrlg0ViuymRQqtWqWSWj7ynW/977Wr1qxcvnLd2nXDI2OUk/raeqWQ/klcLpBfVMU8HxCYR7d0FXjCCdXJyVWjEd94IARDNAJdX+pPOznJeYs4PnFLfA/h7BwW1TxiuC7S4l3rycEw2DptoPCIw6K3osAuybILWa9UVGxPPMrRtd8+euh8kQgERvXqrEIUGFWNFx0cT6GrOl3lSerWixRB6pmK6ZOC99JMx3gpkBRratlphzvkUfaaNTTYpSeVW7ty/Pmt23LFfrbhK+CbAsMndiywN4zIUBLbXgR2aeriSg2nbIOVyclGFq8XkDVpN4y20R41uMmycPfAwQM4jaGjs46IhXX41cDiY9f+gweOHMkNLsGzY6s6za71NUuVde352cLg0lWrm/lh1scGJrXp1vb+tWbrFKZurTTBHDkcFMnqZUZRNq9sOwpivdWqF1P1Jdl6szY51sdQgF3tEdexXEGqzTEeqJdPbH3xyK8eebhY7HvfLf98zdp1eMwKjGsHHwcyY9DQzkP/CIEzIdBtmRwbHwKGk6CTzg863/pIwut8yz/30dkvnJaI1slDPCLEya+TqyK52ZN1Xuea7PwRIbzVSbqdr8dW4XSBlIcpWE/ci0qynjK5cEQF5qmTuhfbE/RXTpe4woXAhYgApFlvsAmBGTlCY+bHuFlnJnW2WX/syc3b9xzMFgaa9WqL5UAQJp6bWAk0R202g2osx/oaFLOz/X39J6am+2ezB46XRweGi1nb2r2F04kWQuzA/n2Hd+7czeq1d7/rlstWrDo6MTk9Ux5ZOsazYqn4jz/4wYGp6SWjy6rlqclaDaPnfKFvcHCsMDBaSRenuUekDdvykqFtFh+k21MBJ8hKxR9X5ogG20asqTPFTDZfm6xOHhkrZcb6l7CNEB+VerOB3dfk5NTE9DSFYPp25bJRIv7kvh+OjS//4Id+H0CQSkxJbhuL2afDPxf6FJyKvEK6EOiJbnnHRV7nV+fOiHVobZDxc889h8sLImwPniLwCAEFOl3BkTiCwOUFc41MA7OKF+eIxFy7di2JcBGRpa29KxRYaITrDBw14x6SW+jw2LFjXLi7DKe90Nbb9N/Ju6/iB3YKj3oLZSZBryPOGskFRxYkixetG264oVMIdjPs2DHHqyiGXhEC5wkCSHj5HO6ZTHVspk4YK2XTRw/vv+v/3jW6dHxJX9/hmalM/zBb4NEJmW2lywSJMhImGQ2zhpUEWMY6O9Q/0Cg3Gn0jz+w+snr5CEuAWP9TKVeOHT84UBpYteGN77zx7bWpyZkZttJLVbAszpTKlTosetnqjS8+9czY6NrW0Cy2JHwBkKSRpcuZXLmezmCwRepMsgbj5JC3Kav5x8gX6g3MGyRduzQ2DlK7rRBG2OXLw0hitpGZra1btbKYwpmGRQh7B7VGhwdbly0/dPBQZabK4ABb6eXjwzPlE3//f75+27/6Y7bjtczmbC0tg3B0yhKWtw4hMB+BeU4caTEY8bp9kzcdiMdtiHiL5oUTDPxMuZCHq2HYaNtm8EIAACAASURBVHR01DpbODCq4owbJvgSWsWfMMzqjEuaWBvBmrh75C1cU7GYnRSYUsVNMTEhYJL1BUiQLrlzEALV4ZoYosVWC7+JJI5/Y17hlsjOi2RK5Fdu7swiuxQbdYnQe9ubMZAFtlT494DmKSQg4AcDHqXM1IVwsoB3yXTLli1eSK8XcV45X0dmgc6A7MXwSkH/FNvRWKAclewlgIDNTpriyad+WDPbqE8cO/ydb39z+fKluJtgMvXIxMTQslWIt02IzHpqW3wM4ARqS8OPRsJ0kEplGsMoVrayo0C1kT42WTlRbmVKw7PFoWxhcO++g294/dWs2GWBbXFwsIxxMpvg9vejW96x98DOoxOFkfF6plhN5eqtTI3lu8yhpnN4pwhZRmt+/GdxVrUn7YKEf6yIgXHNyNh8Z5hZdIrlwPVKf7Y+NpAfLeVSzRo8a7sZmTra7K6p6fDQkoG+EmszzDK51Sz1Faenp5ABNlzxOooXvjmc276aQ06B4XUIgdMg0GbK0zxtB0eM4m4uCOXLDtWxQRDXkBbtzM+w2q5du+BgaBImgMM8JpEhUejT6QEOg7YhPPiYDgmfIctCcoSTIASPV0UImHcjeZenbktMYa644goYmpikRprk7udXrsWpT8naewjFhkrJnRDKzGiA6hAfiqXk1NqJmVwoJ5TsEi0lIY762KnAKuSCRgDX/eagIqx6xR4Y1e4Pf3DX+stX92FOXJvpK6TXrFx2YuKoiYumbG5hRITdlImWQX401W6YLK3Zklw83ph2uZbJlzMD5fRwo7g8NXTZiVRpOjswmS4cqTTKvJfL1Vr1WrM+Nj5qwmeKD0UKepvBT45Nlc4iSRPL/EXZGqMac7aotoI4a1+wtq7YczbRNpC+F8+41+yi3EKK15HXeYYLi0YT6s3liwOIpYzFWdVnUqoZSKM4TzNnTPEHBvouX7tq2fgICnXqvnRsyfZtL+zcuYNUSMQlDf88RlLHBf3Tq/ALikBPdOtsCuVANtASDQu5yqVDWBNOolMh2vpOQZAiT7nmgkfREl5IC9EWwZSd70gHxmIbACRFxFzcLNNkIV2nZJoylLZ+/Xo8EkOExCcpYm7cuJHsYGLSjLwVeiuP1NFnCxavkx0pU0cuKDnpM4ClRiTFdkBeTaJRYIpHOYlgXTnojpxxzzZTxRcC5zMCRmTYK2VQ0pqP4Cce3Vws5JjTZJOA8bGhy1ev3HjF5aySNQpkBR0+XENlgpVS+LfNfy0ERFb92HiUdTrpfD2VLzezjWx/LVPkr5EtNrPF8VVrZ+oN/DnlirbfrVkz2ZrdqrlKttlWZ1KCIVpLmKkniJflsOh4IVHcQoUpWWdUWxcEr4a7SNC0a/8jNay3oFKSsw5dKDXS+Qm24WVhLdPPYRsguNaKGw6yabCrb6q5dGxk48YrisX8zMzUZZet3LTpkWgmy8WMUHEdQuAMCJzF3C0pQTlIfp4kF0513MKFrtolBGp0gS8S/riI2BFy5RYO44De/IIUuIjWttKUIVoCEXNhd6IhBHNLy0aZzG20CJhA50ty9EzPUN24x14MCsZD34BhfHzcpVsXc12WZUxAXhHLeo7c8nqEQ1zyChMCFxoCJrKahOtuDJ94/NGVy0dZorp0bGx0bAQJdqYy3V8qBH9RxsitYBuMU6dQTzoJHBg2tmOCFS+M2XSFze+gNyTWTKNcLRdK+eBLOQ/LQYT7Dx4cWjU+PT2JOMtWQmhwIVT+mzxxopjDVbKRLMZJZhlFKAUjx6ZN7rLEyHS6NseM+ZPtBwSxWnjg3zboYQxglGx6b/M3SXRTAtv4uVRv1NkicHYkz7iBiWEbRZtHR0uRyKi1IWpbONxK8c1h86Ide3ZPl5uHDx9xZRt9Pxpw+5ehnan+EQJxCPQk3dKq0KNy9hRoWBwRx0QNDgZypSvRiM/ZXyHchUXnMG556ikgL3qa/mL0evQiT53kiO+6X86edVQkbj27uAqeISwanHLhmXriXhcCI71xFE6KTu2Owxky0GMhcKEhALsEL8jW0Pft3lUqFVGrrrpsxdjIEDbKWO+yiftwXyHDUlq2jq9U4DxIbU6gDNJlMFYyIRT/jXioYG+BYCcB5WHihJgM/yE4YgeZKxQOHz/RzBRKQ6PImjv3HcqWlqT7ljTzff/4w3tWrFpNv8tmbF9LLryHwoIUzM7GtZ3UerIQCLBtkdZoNiqdRUZ6DUt5TN2NOyvk7CPl2alUoZktsaQJUi8y1ZzONthGF+k5bDjPMV2eoQpr1qyFd9lHYfeeXZTffWNZtcI8rg4h8MoIzFOH0m5Q9iJlwo6ImEic0Jhb38w1qdCXfFQ7lzBtsZN6/da7B1GczzwCga9cmgV6Cqm7Hti5kyJRnkiwXqBMFyFZVOv+DfJfhLlnl9G7fqBFKImyuNgQgCcb9OvZn//8gRMTh8ZH+i9bvrRSnoKG2Z52qpaenB148qUD+RUbWmx/28CemMN6t5OuyY/h6OjwgRlNrpytt+rs996s1vFUV0qnjuxmv77K66+8El8WW7ZtQSK+4nUbn3ru+eGlS/tGRm1foUwBIowQdvoMFNre48d1x8b5HOGxkX078zkxNzwJjwgJJG3sj3FyvThbY/XtmqH8kkyjlK7j58KE37yROguiEBrsS8ib6SyF2bPv0NGJ8vIVq2666R2YXKEsD6nREU9mFMrhx1yZOoJ0eckiME+ZzGeaVuNUxBl2hG5Rm7gwCgcTCFI+UQqtEkJD9LlbbiOZz9+F2zyQM9ekdq7oljJjCeGF55rCwLjMCjNTe0H/8FGNLuhaqPDnJQJIk/BR89Chg8X87MjwSL3GXs6FarWC/rRUwAFqergvXw6+kTtVZE5yHSwbVc6X4Rgf4zUCLS70hJtGlGbDy1ci/O46MoEYvXz962eq1f0nKsvWbYR362w4399XqZqqrCOhOb40yiS4zXNBh8wRQ7TtB3Mx2yMDK2umnio0UtlypYkN1BtWj121Zjl8O9jXh2crFvXmC/lGDUvJBibNTOJmssWxkdETU9WZ8rTr0gPLBtWz5RzyiaVdL4HOlzYC3XO3MGIkrXLtlAlXwbh83JlMde6ErpzAnFlRsLjI6E+hYade5wOXKYO+Ja4bLvwP4GUjH2pBMRgfUDAfWyx85spBCFxYCGCMXMeiCOOkTC597NgRLHOLeI9iJ4HmbK7AJrDNWhPq7esvZavYILeaiIK9U0wQKdOsZUV+zPI9qdXYSTuXL8z2p8thqQ7ezCE35EsEyly+VCnXESt7T98o+GxiB5k3WxwYPdEq3bvpuZfXHLj5t97EGmBMsvhw1Zt1Zpn5bM02G0ePnVh52eVLBor+GeFHZRkwM1vhg8kI3lYnX1i/tEq7yAh00y3Zu0jq1Oh063Tlvvh5ikQbqYihLkI4eBGFLRwcCcHOtcTkkTPuuaJbL6R9LcLhQwevxSLDnWx25wrPZGuh1M43BMJkEZsP2OAYAuSWBXkY9JqAx9xtCg9TmBxXl/QXDk2WC0sG6VhnJdNhIJXPYCdl88BZiNZ2om9l+0oIlHwoKg2UYblCvsCXpFJhx4Kise8CHmlWOplKuDTUKg79ZvfhSm3zB9751nSjVsSPVpOFTEw35zLsW2Cem+vYLuP5AzcgplwO+wX6h04zOAv4E10sSc8zlYoo1tkREqWFOZVaUwvWT7Qt1y0TTjRe8QhcwLVce7MjvidiHTdM7p5DbvCKUBJbXRf2mXfqvVh+RNVDCCSIAKa/xrcmsdG58QwVrH0rlTJCbMNWo7KdAPZSMyvHR6aOH50NS+aI0eMfLMUOPxm29wmrc+iMzJJmC3nsp9AeYwHFZnxwG54UITNcJZO4mQabSNzTn/uQbNtJ+QKgVzxTAvTkqMRHRsfq+GQuLNl9aPKBXzw6myvh0JEteLETxSaaEcbSpePHjx8LQKfxstOJOJ/JOWc/Cf4QSupiQ6Cbbmn9zkYRibrqNVIIu5OpTtIiAgTstse860pj+NVVys7KkWTp6S/ymdw7VceuST63RUoEgYutMao+5wUCcK0JtpAUtMgF/YX1OFNTk+ZuKQ07wkBN1MsTx47u2bGDNT1naZVrabNqlrdYJMQ1VAevo7rlAbv44UbRNpdmVtgMmM3W0lDpmT9DyYOw3fMfwwgqyDeMEQY+oGupws4Dx1/YsafYPzwL82ddgTdbKJUmp8wTDjaJmCiHjCwr+jJfubl1G+fFT6hCnJ8IxCiTKShNnD7mlMmtNyXcUGBeFImqLrDSI/2pmzEziesTG4RzQTqEk0IUeE5QcK71YQQFcLr1kcE5KU9SmaqLJ4Wk0ulAAJpicarZWbDC9YorNrYa0zBfywyFjCZZFGs0PJt56P4H9u8pv/WmVN3Ezt4PlNLokI3DZjFpxn8V0598KZi1ZWYqsBcSagYXGXw/wubZc4rtXrNoM25v0Sk5gmm1Vh4fG97arDdas2xhlEsVHnt229pVK4dx8cxGfSzznbVCoknGnd74suWrVq3GYNopnY9bPo8Xgd7yU6xLGIF50q1TLO2bA/mVXgW/YplM+8fNkyuT6Rd4FT5w4IA7oNi3b9+DDz5IZKRemBXXUVyDp8/g4pWJaMzpOvuGMeA5OMg9fD3ah/XncOsXF+75Em63qvoCIhCmbYNTpVTmLW99G4bB0+VKsdQH/dG7eYrqdP/+w08/+Sz7GEweORwt++mtTKbbNf+J5r3JBuvMU9EVyRJ+DfPFxucNRNtMis0B8Ozo8mpvic/F6lm0JWPU5cisVrVmC+Kk7vh2bqZLjz+7JZUfqLFFQwr5Pg8CuUJpulx95tnnf/SjHx84eJDMKL9/8aRMPrsf6JKM3e3mAu5x7Q3kCumyzw9bUcKX27dvf+aZZ9ge4NFHH4WAuf3kJz9JG7377rtvvPHGL37xizgxJhC63bRpE5sQ0ApZwvvQQw99/OMfP3r06ObNm12mpCMt/hH9sp71RfZDUymv0UVZu4vsxzr/q+OaWNpUC1ON2fTY6LLRpSsqNfYFQE0FOyJqsva2eM+9P8VH044tL2ZbjTDXe/IvLCfk24BvCmj05N9cHAx6zfzK1r0Gd0/BNXOKRI10WWdoe+u6UVYzl8+W+jDMhI9t5z7MtXjq29ViUBw2sbctfPiXcERvszI2+q7zFYMJoz+yMvfoRuqn/tkevWw0NDVT7V8yVK/jPJKJ2gLWytt2HXxp71G2U8jm+4KqrjVVrn77e3f+v589/KlPfvodN73zd37nX+BhipqEmanz/7dVCc8xAvOUyXCk0y3jNRvrhYEbB72HvfOef/55hN23ve1t0CqbEOBnGA8YUPLnPve522+//W/+5m82bNiAP2E2J/j1r3/927/9208//bQ7PYaJCXnLW95COue4uspeCAiBHhCAO3wQBw+95a03fv+fvn35mmVDQ4NmTZxKv/Diy49seqxcyxw8NrXjxd9cu3y5uRoOw76gK0JbbP+gHzs1K1LmsYcHU6mTUVBhs9WdyZLBkaIZPUGZ9WbR9NfQJ4retmmI0Scq6HrYw4e5qmoD4bS/kGeTE3YTco92FOBk0qTanM0H084okAL7FwnRosgqx2x2eKBvulZJsytfxpwnz+aLP3v4lx/5l7cUkH0LWRYC/c8vfQW76UIBO6lMtVrbsmXrrl27x8aWmsZbhxA4EwLddOtNkPbnA1QufvrTn77jHe9AOYxXZAI5o0ymef3mN79BV4ynCLj2zjvvfM973oNXYY7777+fvQd+9rOfsV8Qbo+Qcdljh4PI7vPoTEXS814RaFuR9Bpd8YRATwjASNCS7Spfx5tTbmBg5Lbb/s33/+k7l624DHuimWr961//+1+/sL1QHHjT9W89sGtb5cFqFVrE4glyTmP/bx7b+ETYfgDIiQVsjNguk1OJa0LYc57tAAIxG/21/4HBbIVroEM41NxHWEG4IyniVGus8g1TuXO2IH3B7R2fpkE8q7NP0EyNC7wyY8rlfO9fsyDWmjUTjGtph8MztcBWqlauztTqlZnJvdu3TB47WilPIzG3UGPXKkcO7v7G1+74yz//s7ffcMOmTY++++Zb2OJ+/Tr2JLvSt06hD/oCDdKMAzc2MC6iwi4BBOZNatL42NGWvX1oOiiQadl++DUNlHCal6uFaWTc0ty5QIdMTG65iGyjCCdBbnmdmV3OPvt7CaC6eFXkt7AvVjjkxHHxcL94c6IxIXsa3znZsdUA4ma6dezIgU0PP8gYes26Ky5fdwV71hEMDChw0Tp32gm1m2MqNcVePw22i625CQhDc74PaGWZ/UXbbKtWzZcErGxHoEBzUWxbyPsfOQfaJDY6NiLQ2rkgxEmOWapA5H2ugaMwZNHfP0BEUyoHXd1JWp37fFEkP9oRWmyF0o/gO9jPlj/Z0eEh8+Scz1JuxhuEQLojYcfroP5GiHcLqe4W4J/H7lDdC4EOBLrpFmEUFbETKo3SlS20JPpDtNSHxu2kSzoegR5Fu/fdzuFd52DeIpC3iEwgZOBMLPwTRAD8+Wr4yFp0myCwl2xSTrLmL8nMpfAthTiIJpYt8ti4AF5ld/Y8E5XYDqPiRWBEYsSOyCnWzz0JdER1J8rzgfbczcqXp8H2NzpsXS8b657imphwolEM9+kUDRf8RU+QIvHHiiIbRsxPk8EqLxLOmiTOxA9b8eH3ql4Mk8O2BMmWIJudtkUwPzmYjNnMtAu0ItpLtrOcbcXnKZP5dnPArD4kJK0w5DSu9SbFU8an/onnKeHc+sgUro0GnpArHADL8pRo3Drjnm3hFL93BPiBPLI6f++gKWYsAlgFmSI4+IljiUKbhsImAQiykCAaWAw6YB4YiD/EVZu57YlmLcN2xHaDPaUIgRKtGduTiMHtzrwhhwU3npm3eUrC5wXxNNLr8jhK27XW/kp+LkXvKxTYAsK544m9Sh2RcM0/pdXaLLqQvkmKipNLISy+4PXg3cJqrk5nv5WOMyHQPXfrvMjZ2y6s6cTp3pJJDdk3aGxsD3kewbUEIs4iyHLhr3s4TRBiRrrlwq/Pokeeqdx6DgIOrKAQAgkiAPFAXZ4gatWGOVjEyChns5nMJuF8EaYxm0c2q22wOxAxTQicO5wC/a6rv0ePmqaBNko7yXThBTIybgsLhAJj2nohk2jTOTNhRpHTYMuEQ4cPH8Z8BFsQvi0ozPgioU/GLoTPDvtqLxkaCnO07cxNZo0GAl0EH1G5525yrEVGajc+tqmz8Hk0gmcbe9vS3rxD236+ZhDNEcYkOoRArwh0S7fQJ5RJO+aC5gunYoTsnOqMC4PSxHnkW76TjxMzFwTyNMrZw4lMs+WRtWNZJvf6u/QUD0s0j9f5jevpTUUSAqdHALJBbrP1NmagG8S7QLHZVAZ9LLKebf/O2fadPZkKfdzbId3cGY4Qf3yS8OzeZGJLkKsgwgaWtYRMWWvUaHTmL6IewwD4vrvv277tJVYhYnFJOMYlUCySNwcpoDzzrxZTueTIEolrr7vupHjbUcKTZbVSzN1xYcK0FcHFXR7Y+CEUxHTnYWxhhUVxbgW0sUiYGuZz1/5+UkFEDkoyLwvdCIH5CMxrH7Rd2hA0GfGiN2XrFWGESDhPo85DC+PaydifRjG59XBPKooj/BNEgB8LYP3nAHkO/xUSzEJJXYIIQDaZXHvc3Dl/itt039TddF8m1FqcwDpmQEDzi7q5fwc6h9cejfgQuXNd1HR9vx+jrzl6dqmRmD+69yff/e53x8eXkVS+WBjvW8Y3h0TY7J3XcU3V/haZ5JkaGRs9fvz40MgwTOlaX6a3On++6Ovk1OhnkwqYvQ2s3FULU6rnbHWSU7FNZafN0yRfSUrIl9ITZ0SAKCKu7YRa17EI9KQMibqB9xmavvcrJ+OomcZmoEAhIAQuZARc0LOzEWSQ+oKvY67aQ3AuIxUXEie6sWhETrgTJB8NHw4aTbKhkG19EgmYba+x4ZEd2CKF7HIjI6Nc852B0njBtW4ehywI97zIxTYOajQ+8YlPXH755ZTH6DlwrWfq+EelIgVCeJ00/dqjRSOGMJwgglfT6kxpMaI2AWPOPjTiclmAOrw6nxGBeZbJtDacNeIbmddomrRFmtfIyIi3WkJctPWewy1PaaxRI44Gj2fMVRESQQDfI/6x8B8Iy2TcjEQ/RyJZKBEhEIuAi4ZRl/eBuMeMrnnqfBaFcEEcmmhnK40+I87ZnrInRQiLiO65556tW7fiOJbW7nEg9egrxAXEiVz71a9+1ZMi30iwJoRrz5FwXu8SQ3F4x+omuJPEMUBhJSTTZBs2bHjiiSdYWbtz507OfBW3b9+O0x7Ynelh/PYwywbB86mkx/GuOl1sI1FgFwK9TjbQamlVtLZvf/vbt9xyy44dO3DlyGJvfEt5ijziwtcIRRwguIWAELiYEHB+jRgxotuI3qgsgR7uJOdc60TYGS2KCf95gs7NnXTIlwRK+4M/+AMi84WB83Aie9999+FOx3mXjHgL8sO1DnH8XVKL+DWSBzwLwp3yKQkJ4vKdV7C9IgXmg9evX+8ZMZBl8PrYY48hKxMHLn/jG9/4wgsvXHnllXz6YF8sWvwVJoyx0tIX72Jq5AtXl16lW5drMQv85S9/+YY3vGHXrl3ve9/7mFb5wz/8Qy8cEXwUuXBlVcpdCEi6VZNYZAQifiXf6JqRN27SEQS5wGYYO2E4DGJDEOTslsOckQ5duIzIlUT4aDhldjKWUym8yCPCA32bwErIU0899fnPfx6249oFABLhAisqBM3PfOYzhDvXOjK86EXtYvpoEOAqZT5oMCsvUjbIFZUe8TmgZBL3yKSDOTT0z62/1Vm2Rf4hlN2FiECv0i0Niz5AR/rgBz/4D//wD2hdaIuMMamzt0WN7y7En19lFgK9I+C8SMd3GZFbJLxvfvObjzzyiK+/5yPAU6dGeIuUfbaVTwTqXwTEv/7rv+bavxXOf0QmNf+8RGdP2adjyQL+g01ffvnlBx544KWXXlq1apXn4lTqhYHOYfpf/OIXeJztqpGzL5E9LwqAXppEiIZamDEBqTnX8okjkGJwOPXyiAL4KkceYRRNIjx1Uic+t5F03juSinlpItAr3XorpAv96Ec/gnG5oOnjJzlCjWbnQ9doJHhpAqpaC4GLFQHnRXo63MkXgP2+mFpC+IMXnaIgV5iJ2VbiQFRwMAN0VLU33HADE0/sbkJkBydiPqLBo2ziifKWhW2+vAd+xf4IinXOJh1fT8gkq0vMrmzzDw7ZuWEwuSPgGqkGDTMsiOd2CobYjWCNYHr11VczB8zxzne+c8uWLQ8//DD7qZA4OmQKRgQiu2KZUuFaANUxfEz6rj2++eaboXO0x0QmKXid+FTHC+M1ulh/etUrEQR6VSafLjMnV1f+qMGdDqUFCpcyeYGAVbKnQwByYncvzIiQaOEhiMc5GJp07Re3a9euhcDgRSRICJLbaAjeNRbniwFhf+9730NPhngKe5G+JwjRkibkzQW5cE04LEgcaJW8uCZx6JA4Tq6oeT/84Q9j5YSq2cvPuy6JciYv2Pftb3+7T9ZSPOK4kErK8P173/teQjxlLgj0RDrL7LplwkmtM46HRK/4izoLgS4E5tEtz5idRWFCM6XZcUtT41aonZ8IiG7Pz9/lPCwV9OBCGGWDe7rGx/R3NzKC7SJvNt79YTUu2PSaHcCeffZZNr1GuUpqUODq1avZVdMlTqRYDHq55uKMrOMk5zT2hS98AUGT3L1ITpDk6BdebG65oNiQ7vj4OIVcs2bNVVddde+993ILVX/kIx9h8vXLX/4yPeKjH/0ot7E/gXNk7KPXEnjG+r6WxPXuxYRAN90yq0G3oenTNOlpXNCFFrrCXUNFNd8eARfd9giUonUiQHfr6mIewtkPlyCfe+45trjmQL+KohUehWgRW7GRxAwYriXEyfhUeLt69KkRIoInJumjpEXHu23bNniU748LtUiucD8q5RtvvBFdNHkhnqJzhul5/bbbbnv88ceffPJJ4qMcvu6661z0pGqn+4B4qU4tzGsJOV1eryVNvXuxItA9d0vroVlzMPaEaxlO8k1fiGbaCSiZdmWx0DleHD8nn8VTobs4qqZaJI4Afcq5wc+dOlKMjJguZeqU0TZiIlIsFEj393lZvgaoZyFX/COi64okUVLgIFkn3ajPcvvKJMRbbtlLTDTJLKslI8hybGwMQv3a177GFCy3rP+Ba6FeSvWVr3wFQOBjXDki3bpvgFtvvfUDH/gAifCZ4uzOZb0wseidrlT62sTCpcDEETjt3C1dgtbpHWOhm2NXN1jo7BIH8VwlyAfRdYAgxiE3F+fqhzjP8/XmwTlSI1Ngbund0CrqXIyV/BHhkJbzpc/LQnsQLXzGmVV/KG8JR6DEkogQ4pMIZ7pwZy/2HE/HfJ41OSKkkjKiLdPAzN1Ct0i3ZOHFI0HCPRdCKAmt3XNxmnfYSWeR8af8nmPXh2uRi6HsLjgEuumWuVsfOfrcCR3Gp0wWtGJO7WThzTc6R816QXO/cBMHt+hbw7Xo9sL9KRe05PQj+hQtBI8NrJWHtFAO45zh9ttv/9u//Vu8N0SiIc3JmYxXnCw5+6wq4SyrpZzcwnyoeTFK+vSnPx3NtnoVvM/6uXcijOjZi9qJBtkZk3e4p/Cy+UfDvxVcU85T310gVBctowUqv5I9Vwh0b1FA8/WxLS3Yy0TXWujCMV4mi86O6t1vofO9+NL3r8/FVy/V6LUg4K0CXmTdC3OumzZtQpRkecxf/MVffPazn73//vu///3v081hRwjVvwDIuFy7N2AEUC7okt5P+T74rC0RCOSts2110cQtHxkSh7mdwNz8mFz81j9BXh7PyEHw7Hw04DE9hDMpE+6PXgtir/zu2db3lVPT00sHgXnSLQNJpFu6Iu3VFZUMhOmHC918I2q/dHBPpKbg1ind8vlj0iuRlJXIxYSA9y96sUuBqI6/TSZm0wAADexJREFU8Y1vMCEKiTJf+8UvfpFrTI6xjbr++uuhUro8vMVsLi2Kg1smd51xcVWBshenS9gDe2OLpM+zIiEfTztBOot72SLYI0ru+iGcX6NA3iIRDn+dwlDNsyrJxfRDqy7nOQIxplI0Vv+I07IZb0abqi5cTbyr0E/IF4Ln7ENm0fDCYa6ULx0EnJCi+uLzAQsjJl8x973rrruw+0WxzPnaa68lJgNu3PSjduaCqVOMlb7+9a8zWctyHZYDYS2M7SQzrHAt3MYngg7LmcT93CPVEc0H9M61vO5DfMKjsb4XmGh8DZxlOynZQyJJwC98SBGNQS+dn1g1vSAQiJm7pWv5mJEGzQiXYWY6Y0YN3ugZ6noPcSUz7du7B095izPdgwsfC/s18aFtX41Omn64aaJfeycBLzob3dh7rHWt9kLzCwLJc1ZIh53s+TLy3Yw+QOesQMr4AkHAFVfOcBSZPv6xj32M4TX6LXouUiwHy1tZ9nPHHXfQi+ndEDDt7Y/+6I/e//738/oZjYEvECRUTCGwGAh0S7dxeaKogRZtX+jAo0W6os/0hA+92QqifKIz+h6WuZxNxNJ1eQqnEsgf0SqVari1sSqPqtUatzBsyNG30YwuRLNxv4PChECiCESSpUuKdEzW27hoGPm7IEMcSOHOkC6PbRQuohCCMSEm3Gd2exRnEy24EhMCFyQCvUi3zUoVWwkzZ/AqIj/RJ+mQkYTqgq93Wp76vAvMyuHjXx5Bse5znGsi+HXg7wJLfLkg8fnSbVPSbS9tKgx6bC2EpNte4FKcTgR8+EuIX3gX5ppe7H02jInt8Ed+jm65cEOqzjR1LQSEQCwCvUi37G9VCBKqmSDSD5m8YV8O+NItJhBnvRNOTU0SyFMmeOiEePHmRSTjwM42+xK6dC5QLP7YfH/cAjGZro0tnAKFgBBYOAQiriULH7F5XlxHemanXsKDEssmkkKHzfkEEGeXcReukEpZCFw0CJhD1DMeTrT0N/oeXQ4zCmgVNuUCGffFF190iyqWqzPXi6KJzS9Zb8DaPmwuOFhKD9c+/fTTZMQiP1LANQxPXcCNNFpnLIYiCAEhkCACPgiOEjQrjdDHCYFQvddzZnxMuCtRXB3lsq9bCdC1EyySkhICFzECPUm3+EpFToVZGcm6Jpk1A/hSdt7Fr9vPf/5zwt0djA+TMYxiq77f+73fw7M53lBZXcB+Vb/61a9QeOIljvNNN93kHVXd9SJuXqraeY4AA2VGvRQSHvW5IZ+L5UzHdELlHKmaXUdF/Ega9vjneTVVPCFwPiDQo3SLBhiLf5TGTOGYzdS11163fv0GrJ8wkhocXIK6+MSJyT179jLF6wpk4vf3DxB58+ZH+/r62Szk6aefGRtbSsyNG1/Hu88++xzbDhE/mFbJNup8aAwqwyWHAFwLgyLXdgqsUC+BkaTr0i3QeDSXernVQPmSay6q8GtDoCdTqdkUc6tpHwh7H/OuiLCL4MugGIUw4Rwoirn1CwIZFHPrCwYIJAUfNfuiArdeDttKYkhlKiyediwEkqlUT7+tTKV6gkmRTkGA7kmP4+BJ1IqsNwaujXq63xIhEnOJ4++6+HtKwgoQAkIgBoF5ymSftvFY9C4u6HVmgZxH3ZRmNqfZbHSmUatVceECU1arRpZ+NBp13spmcWFDZ6ZbMnDGuZoZRhEY4tgrc/zKLX3bFrnbVUc/byenf86EgH8uDda5T+eZ3tBzIWAIRArhrmtvUZ3tigjeQ6NXOt8VmkJACPSCwDy6dYND/2pHY1u6Weh4Z9b3Rv3TqfqM2UfxPS8yci2Wk254KiuMM6KoCEJACAgBIXABIBBjKgXbRVyL1hejp2oNofbMdEt1IwbtpeqeC5yKBOyDZV53CZtbjtZ8YbqXNBVHCAgBISAEhMB5iMA8uoX/YLvIUALCw5KCmdlSE8VyDN3O8WU3y/ZOuh4TxbLL0D7Xy5mUexSRz0NMVSQhIASEgBAQAl0IxEu3zoKcg5CJ7VNPuHUph099J6JnHnVScjpd4Jaj03bj1NcVIgSEgBAQAkLgAkVgHt065/nZ5UvOwW6xp6OTTWNfmJ9Um8PJztfXc3E6cTk2NQUKASEgBISAELhQEOiWbjspk+tAt7BgK06X3DYkPrWqp1secDo2LRR8RW97+QE5kiaZYqN1auIKiRA44/hGWAkBISAEhMB5gkD3QqBo4jaSdI07ob044uv83DtHeq1ORwOdcU7WH161iVpbWe88zfl0KZwnqKkYQkAICAEhIATOCoFuZTK7DszMzLDWlmlUaI+ZW874qTirRBV50RCwcUrwP4DLETYMd23EouWujISAEBACQqBHBOZ5lfJ3XND068hguMfkFG0xEWAwRHZQrCsDTqfDX8wiKS8hIASEgBCIRWAe3SLFujjrUf0jHq8Bjk1MgYuLQKwsGxu4uOVSbkJACAgBIdCNQIx061Eimckncbvf070QEAJCQAgIASHQMwLdlsm8iDLZX5dysmcYz3FEHxtpYHSOfwZlLwSEgBA4PQLddBspkCMdspSTp0fvHD/xgZH/UhobneMfQ9kLASEgBF4RgVdSJvOii036lL8ihuf+oTOuD5Uojabbz/1PohIIASEgBOYjcFq6FVBCQAgIASEgBIRAUgj4BrRJpaZ0hIAQEAJCQAgIgRgERLcxoChICAgBISAEhECyCIhuk8VTqQkBISAEhIAQiEFAdBsDioKEgBAQAkJACCSLgOg2WTyVmhAQAkJACAiBGAREtzGgKEgICAEhIASEQLIIiG6TxVOpCQEhIASEgBCIQUB0GwOKgoSAEBACQkAIJIuA6DZZPJWaEBACQkAICIEYBES3MaAoSAgIASEgBIRAsgiIbpPFU6kJASEgBISAEIhBQHQbA4qChIAQEAJCQAgki4DoNlk8lZoQEAJCQAgIgRgERLcxoChICAgBISAEhECyCIhuk8VTqQkBISAEhIAQiEFAdBsDioKEgBAQAkJACCSLgOg2WTyVmhAQAkJACAiBGAREtzGgKEgICAEhIASEQLIIiG6TxVOpCQEhIASEgBCIQUB0GwOKgoSAEBACQkAIJIuA6DZZPJWaEBACQkAICIEYBES3MaAoSAgIASEgBIRAsgiIbpPFU6kJASEgBISAEIhBQHQbA4qChIAQEAJCQAgki4DoNlk8lZoQEAJCQAgIgRgERLcxoChICAgBISAEhECyCIhuk8VTqQkBISAEhIAQiEFAdBsDioKEgBAQAkJACCSLgOg2WTyVmhAQAkJACAiBGAREtzGgKEgICAEhIASEQLIIiG6TxVOpCQEhIASEgBCIQUB0GwOKgoSAEBACQkAIJIuA6DZZPJWaEBACQkAICIEYBES3MaAoSAgIASEgBIRAsgiIbpPFU6kJASEgBISAEIhBQHQbA4qChIAQEAJCQAgki4DoNlk8lZoQEAJCQAgIgRgERLcxoChICAgBISAEhECyCIhuk8VTqQkBISAEhIAQiEFAdBsDioKEgBAQAkJACCSLgOg2WTyVmhAQAkJACAiBGAREtzGgKEgICAEhIASEQLIIiG6TxVOpCQEhIASEgBCIQUB0GwOKgoSAEBACQkAIJIuA6DZZPJWaEBACQkAICIEYBES3MaAoSAgIASEgBIRAsgiIbpPFU6kJASEgBISAEIhBQHQbA4qChIAQEAJCQAgki4DoNlk8lZoQEAJCQAgIgRgERLcxoChICAgBISAEhECyCIhuk8VTqQkBISAEhIAQiEFAdBsDioKEgBAQAkJACCSLgOg2WTyVmhAQAkJACAiBGAREtzGgKEgICAEhIASEQLIIiG6TxVOpCQEhIASEgBCIQUB0GwOKgoSAEBACQkAIJIuA6DZZPJWaEBACQkAICIEYBES3MaAoSAgIASEgBIRAsgiIbpPFU6kJASEgBISAEIhBQHQbA4qChIAQEAJCQAgki4DoNlk8lZoQEAJCQAgIgRgERLcxoChICAgBISAEhECyCIhuk8VTqQkBISAEhIAQiEFAdBsDioKEgBAQAkJACCSLgOg2WTyVmhAQAkJACAiBGAREtzGgKEgICAEhIASEQLIIiG6TxVOpCQEhIASEgBCIQUB0GwOKgoSAEBACQkAIJIuA6DZZPJWaEBACQkAICIEYBES3MaAoSAgIASEgBIRAsgiIbpPFU6kJASEgBISAEIhBQHQbA4qChIAQEAJCQAgki4DoNlk8lZoQEAJCQAgIgRgERLcxoChICAgBISAEhECyCIhuk8VTqQkBISAEhIAQiEFAdBsDioKEgBAQAkJACCSLgOg2WTyVmhAQAkJACAiBGAREtzGgKEgICAEhIASEQLIIiG6TxVOpCQEhIASEgBCIQUB0GwOKgoSAEBACQkAIJIuA6DZZPJWaEBACQkAICIEYBES3MaAoSAgIASEgBIRAsgiIbpPFU6kJASEgBISAEIhBQHQbA4qChIAQEAJCQAgki4DoNlk8lZoQEAJCQAgIgRgERLcxoChICAgBISAEhECyCIhuk8VTqQkBISAEhIAQiEFAdBsDioKEgBAQAkJACCSLgOg2WTyVmhAQAkJACAiBGAREtzGgKEgICAEhIASEQLIIiG6TxVOpCQEhIASEgBCIQUB0GwOKgoSAEBACQkAIJIuA6DZZPJWaEBACQkAICIEYBES3MaAoSAgIASEgBIRAsgiIbpPFU6kJASEgBISAEIhBQHQbA4qChIAQEAJCQAgki4DoNlk8lZoQEAJCQAgIgRgE/j/AN2pqXgk6RwAAAABJRU5ErkJggg==;" vertex="1" parent="1">
          <mxGeometry x="1091" y="359.24" width="125.89" height="60.76" as="geometry" />
        </mxCell>
        <mxCell id="tI6_fL3ysTr3sA-bvsCZ-55" value="" style="sketch=0;verticalLabelPosition=bottom;sketch=0;aspect=fixed;html=1;verticalAlign=top;strokeColor=none;fillColor=#000000;align=center;outlineConnect=0;pointerEvents=1;shape=mxgraph.citrix2.desktop;" vertex="1" parent="1">
          <mxGeometry x="1085" y="230" width="140" height="108.25" as="geometry" />
        </mxCell>
        <mxCell id="tI6_fL3ysTr3sA-bvsCZ-56" value="" style="sketch=0;verticalLabelPosition=bottom;sketch=0;aspect=fixed;html=1;verticalAlign=top;strokeColor=none;fillColor=#000000;align=center;outlineConnect=0;pointerEvents=1;shape=mxgraph.citrix2.desktop;" vertex="1" parent="1">
          <mxGeometry x="1085" y="350" width="135" height="104.38" as="geometry" />
        </mxCell>
        <mxCell id="tI6_fL3ysTr3sA-bvsCZ-58" value="" style="endArrow=classic;html=1;rounded=0;" edge="1" parent="1">
          <mxGeometry width="50" height="50" relative="1" as="geometry">
            <mxPoint x="570" y="930" as="sourcePoint" />
            <mxPoint x="1080" y="400" as="targetPoint" />
          </mxGeometry>
        </mxCell>
        <mxCell id="tI6_fL3ysTr3sA-bvsCZ-60" style="edgeStyle=orthogonalEdgeStyle;rounded=0;orthogonalLoop=1;jettySize=auto;html=1;" edge="1" parent="1" source="tI6_fL3ysTr3sA-bvsCZ-59">
          <mxGeometry relative="1" as="geometry">
            <mxPoint x="1240" y="355" as="targetPoint" />
          </mxGeometry>
        </mxCell>
        <mxCell id="tI6_fL3ysTr3sA-bvsCZ-59" value="Actor" style="shape=umlActor;verticalLabelPosition=bottom;verticalAlign=top;html=1;outlineConnect=0;" vertex="1" parent="1">
          <mxGeometry x="1380" y="325" width="30" height="60" as="geometry" />
        </mxCell>
        <mxCell id="tI6_fL3ysTr3sA-bvsCZ-64" value="" style="image;sketch=0;aspect=fixed;html=1;points=[];align=center;fontSize=12;image=img/lib/mscae/Docker.svg;" vertex="1" parent="1">
          <mxGeometry x="40" y="-210" width="120.73" height="99" as="geometry" />
        </mxCell>
        <mxCell id="tI6_fL3ysTr3sA-bvsCZ-65" value="&lt;b&gt;&lt;font style=&quot;font-size: 14px;&quot;&gt;networks:&amp;nbsp;&lt;/font&gt;&lt;/b&gt;&lt;b style=&quot;font-size: 14px;&quot;&gt;lab-monitoring-network&lt;/b&gt;&lt;br&gt;&lt;b style=&quot;font-size: 14px;&quot;&gt;&amp;nbsp; &amp;nbsp; &amp;nbsp; &amp;nbsp; &amp;nbsp;subnet: 10.5.0.0/16&lt;/b&gt;&lt;div&gt;&lt;span style=&quot;font-size: 14px;&quot;&gt;&lt;b&gt;&amp;nbsp; &amp;nbsp; &amp;nbsp; gateway: 10.5.0.1&lt;/b&gt;&lt;/span&gt;&lt;br&gt;&lt;br&gt;&lt;/div&gt;" style="text;html=1;align=center;verticalAlign=middle;whiteSpace=wrap;rounded=0;" vertex="1" parent="1">
          <mxGeometry x="21" y="-87" width="260" height="30" as="geometry" />
        </mxCell>
        <mxCell id="tI6_fL3ysTr3sA-bvsCZ-66" value="&lt;b&gt;ciceroednilson@gmail.com&lt;/b&gt;" style="text;html=1;align=center;verticalAlign=middle;whiteSpace=wrap;rounded=0;" vertex="1" parent="1">
          <mxGeometry x="1310" y="1030" width="60" height="30" as="geometry" />
        </mxCell>
        <mxCell id="tI6_fL3ysTr3sA-bvsCZ-68" value="PostgreSQL&lt;div&gt;10.5.0.2&lt;br&gt;&lt;/div&gt;" style="rounded=1;whiteSpace=wrap;html=1;strokeColor=default;align=center;verticalAlign=top;fontFamily=Helvetica;fontSize=12;fontColor=default;fillColor=default;fontStyle=1;labelPosition=center;verticalLabelPosition=bottom;" vertex="1" parent="1">
          <mxGeometry x="674" y="850" width="200" height="130" as="geometry" />
        </mxCell>
        <mxCell id="tI6_fL3ysTr3sA-bvsCZ-72" value="" style="shape=image;verticalLabelPosition=bottom;labelBackgroundColor=default;verticalAlign=top;aspect=fixed;imageAspect=0;image=https://upload.wikimedia.org/wikipedia/commons/thumb/2/29/Postgresql_elephant.svg/800px-Postgresql_elephant.svg.png;" vertex="1" parent="1">
          <mxGeometry x="719" y="871.84" width="94" height="96.94" as="geometry" />
        </mxCell>
      </root>
    </mxGraphModel>
  </diagram>
</mxfile>
